<mxfile host="app.diagrams.net" modified="2024-06-10T14:44:07.103Z" agent="Mozilla/5.0 (Windows NT 10.0; Win64; x64) AppleWebKit/537.36 (KHTML, like Gecko) Chrome/121.0.0.0 Safari/537.36" etag="Oca_HwXesuhnNameR4lG" version="24.5.2" type="device">
  <diagram id="XuAWWrtT51MjqdmUZVaE" name="PÃ¡gina-2">
    <mxGraphModel dx="2868" dy="2733" grid="1" gridSize="10" guides="1" tooltips="1" connect="1" arrows="1" fold="1" page="1" pageScale="1" pageWidth="827" pageHeight="1169" math="0" shadow="0">
      <root>
        <mxCell id="0" />
        <mxCell id="1" parent="0" />
        <mxCell id="p4KYx9Ay_tRQnupfqdgm-6" value="" style="shape=ext;double=1;rounded=0;whiteSpace=wrap;html=1;fillColor=#D5E8D4;strokeColor=#97D077;strokeWidth=6;" parent="1" vertex="1">
          <mxGeometry x="230" y="-1090" width="2940" height="2360" as="geometry" />
        </mxCell>
        <mxCell id="p4KYx9Ay_tRQnupfqdgm-12" value="" style="rounded=1;whiteSpace=wrap;html=1;" parent="1" vertex="1">
          <mxGeometry x="2510" y="-1040" width="490" height="1020" as="geometry" />
        </mxCell>
        <mxCell id="p4KYx9Ay_tRQnupfqdgm-10" value="" style="rounded=1;whiteSpace=wrap;html=1;" parent="1" vertex="1">
          <mxGeometry x="1820" y="-1040" width="490" height="1020" as="geometry" />
        </mxCell>
        <mxCell id="p4KYx9Ay_tRQnupfqdgm-11" value="" style="rounded=1;whiteSpace=wrap;html=1;" parent="1" vertex="1">
          <mxGeometry x="430.39" y="-1040" width="490" height="1020" as="geometry" />
        </mxCell>
        <mxCell id="X_VbzCY8tAeAVXQSnZSo-11" value="" style="shape=image;verticalLabelPosition=bottom;labelBackgroundColor=default;verticalAlign=top;aspect=fixed;imageAspect=0;image=https://png.pngtree.com/png-clipart/20231005/original/pngtree-iphone-mockup-with-blank-screen-on-transparent-background-png-image_13279256.png;clipPath=inset(9.67% 28% 8% 27.67%);" parent="1" vertex="1">
          <mxGeometry x="390" y="-1060" width="570.77" height="1060" as="geometry" />
        </mxCell>
        <mxCell id="CFxwsGWaFdRzIgu9TEgN-1" value="procurar cliente" style="rounded=1;whiteSpace=wrap;html=1;" parent="1" vertex="1">
          <mxGeometry x="460" y="-958.95" width="391.66" height="40" as="geometry" />
        </mxCell>
        <mxCell id="CFxwsGWaFdRzIgu9TEgN-2" value="" style="shape=image;html=1;verticalLabelPosition=bottom;verticalAlign=top;imageAspect=1;aspect=fixed;image=https://images.vexels.com/media/users/3/204845/isolated/lists/31084e04c65187ba8d1ecb9880f5d29f-design-de-icone-de-traco-de-lupa.png;" parent="1" vertex="1">
          <mxGeometry x="860.0027535647705" y="-960" width="35.88519945349693" height="42.095974814605675" as="geometry" />
        </mxCell>
        <mxCell id="RbqGqWquLHpoGGyO6dPe-72" value="" style="group" parent="1" vertex="1" connectable="0">
          <mxGeometry x="460" y="-889.9961971830985" width="383.6372098218035" height="50" as="geometry" />
        </mxCell>
        <mxCell id="CFxwsGWaFdRzIgu9TEgN-4" value="Nome do cliente" style="text;html=1;align=center;verticalAlign=middle;whiteSpace=wrap;rounded=0;" parent="RbqGqWquLHpoGGyO6dPe-72" vertex="1">
          <mxGeometry x="57.54865806754998" y="7.253521126760575" width="118.23785290808014" height="35.49295774647888" as="geometry" />
        </mxCell>
        <mxCell id="CFxwsGWaFdRzIgu9TEgN-3" value="" style="ellipse;whiteSpace=wrap;html=1;aspect=fixed;" parent="RbqGqWquLHpoGGyO6dPe-72" vertex="1">
          <mxGeometry width="50" height="50" as="geometry" />
        </mxCell>
        <mxCell id="RbqGqWquLHpoGGyO6dPe-40" value="" style="shape=actor;whiteSpace=wrap;html=1;" parent="RbqGqWquLHpoGGyO6dPe-72" vertex="1">
          <mxGeometry x="10" y="5" width="30" height="40" as="geometry" />
        </mxCell>
        <mxCell id="RbqGqWquLHpoGGyO6dPe-71" value="" style="group" parent="RbqGqWquLHpoGGyO6dPe-72" vertex="1" connectable="0">
          <mxGeometry x="179.28259149157725" y="7.253521126760575" width="204.3546183302263" height="35.492957746478865" as="geometry" />
        </mxCell>
        <mxCell id="CFxwsGWaFdRzIgu9TEgN-6" value="Atualizar?" style="rounded=1;whiteSpace=wrap;html=1;fillColor=#d5e8d4;strokeColor=#82b366;" parent="RbqGqWquLHpoGGyO6dPe-71" vertex="1">
          <mxGeometry x="148.1916381988882" y="-1.4210854715202004e-14" width="56.162980131338074" height="35.49295774647888" as="geometry" />
        </mxCell>
        <mxCell id="CFxwsGWaFdRzIgu9TEgN-7" value="Apagar?" style="rounded=1;whiteSpace=wrap;html=1;fillColor=#d5e8d4;strokeColor=#82b366;" parent="RbqGqWquLHpoGGyO6dPe-71" vertex="1">
          <mxGeometry x="72.27284593809304" y="-1.4210854715202004e-14" width="56.162980131338074" height="35.49295774647888" as="geometry" />
        </mxCell>
        <mxCell id="CFxwsGWaFdRzIgu9TEgN-8" value="Entrar" style="rounded=1;whiteSpace=wrap;html=1;fillColor=#d5e8d4;strokeColor=#82b366;" parent="RbqGqWquLHpoGGyO6dPe-71" vertex="1">
          <mxGeometry y="-1.4210854715202004e-14" width="56.162980131338074" height="35.49295774647888" as="geometry" />
        </mxCell>
        <mxCell id="RbqGqWquLHpoGGyO6dPe-73" value="" style="group" parent="1" vertex="1" connectable="0">
          <mxGeometry x="460" y="-639.9961971830986" width="383.6372098218035" height="50" as="geometry" />
        </mxCell>
        <mxCell id="RbqGqWquLHpoGGyO6dPe-74" value="Nome do cliente" style="text;html=1;align=center;verticalAlign=middle;whiteSpace=wrap;rounded=0;" parent="RbqGqWquLHpoGGyO6dPe-73" vertex="1">
          <mxGeometry x="57.54865806754998" y="7.253521126760575" width="118.23785290808014" height="35.49295774647888" as="geometry" />
        </mxCell>
        <mxCell id="RbqGqWquLHpoGGyO6dPe-75" value="" style="ellipse;whiteSpace=wrap;html=1;aspect=fixed;" parent="RbqGqWquLHpoGGyO6dPe-73" vertex="1">
          <mxGeometry width="50" height="50" as="geometry" />
        </mxCell>
        <mxCell id="RbqGqWquLHpoGGyO6dPe-76" value="" style="shape=actor;whiteSpace=wrap;html=1;" parent="RbqGqWquLHpoGGyO6dPe-73" vertex="1">
          <mxGeometry x="10" y="5" width="30" height="40" as="geometry" />
        </mxCell>
        <mxCell id="RbqGqWquLHpoGGyO6dPe-77" value="" style="group" parent="RbqGqWquLHpoGGyO6dPe-73" vertex="1" connectable="0">
          <mxGeometry x="179.28259149157725" y="7.253521126760575" width="204.3546183302263" height="35.492957746478865" as="geometry" />
        </mxCell>
        <mxCell id="RbqGqWquLHpoGGyO6dPe-78" value="Atualizar?" style="rounded=1;whiteSpace=wrap;html=1;fillColor=#d5e8d4;strokeColor=#82b366;" parent="RbqGqWquLHpoGGyO6dPe-77" vertex="1">
          <mxGeometry x="148.1916381988882" y="-1.4210854715202004e-14" width="56.162980131338074" height="35.49295774647888" as="geometry" />
        </mxCell>
        <mxCell id="RbqGqWquLHpoGGyO6dPe-79" value="Apagar?" style="rounded=1;whiteSpace=wrap;html=1;fillColor=#d5e8d4;strokeColor=#82b366;" parent="RbqGqWquLHpoGGyO6dPe-77" vertex="1">
          <mxGeometry x="72.27284593809304" y="-1.4210854715202004e-14" width="56.162980131338074" height="35.49295774647888" as="geometry" />
        </mxCell>
        <mxCell id="RbqGqWquLHpoGGyO6dPe-80" value="Entrar" style="rounded=1;whiteSpace=wrap;html=1;fillColor=#d5e8d4;strokeColor=#82b366;" parent="RbqGqWquLHpoGGyO6dPe-77" vertex="1">
          <mxGeometry y="-1.4210854715202004e-14" width="56.162980131338074" height="35.49295774647888" as="geometry" />
        </mxCell>
        <mxCell id="RbqGqWquLHpoGGyO6dPe-81" value="" style="group" parent="1" vertex="1" connectable="0">
          <mxGeometry x="460" y="-559.9961971830986" width="383.6372098218035" height="50" as="geometry" />
        </mxCell>
        <mxCell id="RbqGqWquLHpoGGyO6dPe-82" value="Nome do cliente" style="text;html=1;align=center;verticalAlign=middle;whiteSpace=wrap;rounded=0;" parent="RbqGqWquLHpoGGyO6dPe-81" vertex="1">
          <mxGeometry x="57.54865806754998" y="7.253521126760575" width="118.23785290808014" height="35.49295774647888" as="geometry" />
        </mxCell>
        <mxCell id="RbqGqWquLHpoGGyO6dPe-83" value="" style="ellipse;whiteSpace=wrap;html=1;aspect=fixed;" parent="RbqGqWquLHpoGGyO6dPe-81" vertex="1">
          <mxGeometry width="50" height="50" as="geometry" />
        </mxCell>
        <mxCell id="RbqGqWquLHpoGGyO6dPe-84" value="" style="shape=actor;whiteSpace=wrap;html=1;" parent="RbqGqWquLHpoGGyO6dPe-81" vertex="1">
          <mxGeometry x="10" y="5" width="30" height="40" as="geometry" />
        </mxCell>
        <mxCell id="RbqGqWquLHpoGGyO6dPe-85" value="" style="group" parent="RbqGqWquLHpoGGyO6dPe-81" vertex="1" connectable="0">
          <mxGeometry x="179.28259149157725" y="7.253521126760575" width="204.3546183302263" height="35.492957746478865" as="geometry" />
        </mxCell>
        <mxCell id="RbqGqWquLHpoGGyO6dPe-86" value="Atualizar?" style="rounded=1;whiteSpace=wrap;html=1;fillColor=#d5e8d4;strokeColor=#82b366;" parent="RbqGqWquLHpoGGyO6dPe-85" vertex="1">
          <mxGeometry x="148.1916381988882" y="-1.4210854715202004e-14" width="56.162980131338074" height="35.49295774647888" as="geometry" />
        </mxCell>
        <mxCell id="RbqGqWquLHpoGGyO6dPe-87" value="Apagar?" style="rounded=1;whiteSpace=wrap;html=1;fillColor=#d5e8d4;strokeColor=#82b366;" parent="RbqGqWquLHpoGGyO6dPe-85" vertex="1">
          <mxGeometry x="72.27284593809304" y="-1.4210854715202004e-14" width="56.162980131338074" height="35.49295774647888" as="geometry" />
        </mxCell>
        <mxCell id="RbqGqWquLHpoGGyO6dPe-88" value="Entrar" style="rounded=1;whiteSpace=wrap;html=1;fillColor=#d5e8d4;strokeColor=#82b366;" parent="RbqGqWquLHpoGGyO6dPe-85" vertex="1">
          <mxGeometry y="-1.4210854715202004e-14" width="56.162980131338074" height="35.49295774647888" as="geometry" />
        </mxCell>
        <mxCell id="RbqGqWquLHpoGGyO6dPe-89" value="" style="group" parent="1" vertex="1" connectable="0">
          <mxGeometry x="460" y="-479.9961971830986" width="383.6372098218035" height="50" as="geometry" />
        </mxCell>
        <mxCell id="RbqGqWquLHpoGGyO6dPe-90" value="Nome do cliente" style="text;html=1;align=center;verticalAlign=middle;whiteSpace=wrap;rounded=0;" parent="RbqGqWquLHpoGGyO6dPe-89" vertex="1">
          <mxGeometry x="57.54865806754998" y="7.253521126760575" width="118.23785290808014" height="35.49295774647888" as="geometry" />
        </mxCell>
        <mxCell id="RbqGqWquLHpoGGyO6dPe-91" value="" style="ellipse;whiteSpace=wrap;html=1;aspect=fixed;" parent="RbqGqWquLHpoGGyO6dPe-89" vertex="1">
          <mxGeometry width="50" height="50" as="geometry" />
        </mxCell>
        <mxCell id="RbqGqWquLHpoGGyO6dPe-92" value="" style="shape=actor;whiteSpace=wrap;html=1;" parent="RbqGqWquLHpoGGyO6dPe-89" vertex="1">
          <mxGeometry x="10" y="5" width="30" height="40" as="geometry" />
        </mxCell>
        <mxCell id="RbqGqWquLHpoGGyO6dPe-93" value="" style="group" parent="RbqGqWquLHpoGGyO6dPe-89" vertex="1" connectable="0">
          <mxGeometry x="179.28259149157725" y="7.253521126760575" width="204.3546183302263" height="35.492957746478865" as="geometry" />
        </mxCell>
        <mxCell id="RbqGqWquLHpoGGyO6dPe-94" value="Atualizar?" style="rounded=1;whiteSpace=wrap;html=1;fillColor=#d5e8d4;strokeColor=#82b366;" parent="RbqGqWquLHpoGGyO6dPe-93" vertex="1">
          <mxGeometry x="148.1916381988882" y="-1.4210854715202004e-14" width="56.162980131338074" height="35.49295774647888" as="geometry" />
        </mxCell>
        <mxCell id="RbqGqWquLHpoGGyO6dPe-95" value="Apagar?" style="rounded=1;whiteSpace=wrap;html=1;fillColor=#d5e8d4;strokeColor=#82b366;" parent="RbqGqWquLHpoGGyO6dPe-93" vertex="1">
          <mxGeometry x="72.27284593809304" y="-1.4210854715202004e-14" width="56.162980131338074" height="35.49295774647888" as="geometry" />
        </mxCell>
        <mxCell id="RbqGqWquLHpoGGyO6dPe-96" value="Entrar" style="rounded=1;whiteSpace=wrap;html=1;fillColor=#d5e8d4;strokeColor=#82b366;" parent="RbqGqWquLHpoGGyO6dPe-93" vertex="1">
          <mxGeometry y="-1.4210854715202004e-14" width="56.162980131338074" height="35.49295774647888" as="geometry" />
        </mxCell>
        <mxCell id="RbqGqWquLHpoGGyO6dPe-97" value="" style="group" parent="1" vertex="1" connectable="0">
          <mxGeometry x="460" y="-809.9961971830986" width="383.6372098218035" height="50" as="geometry" />
        </mxCell>
        <mxCell id="RbqGqWquLHpoGGyO6dPe-98" value="Nome do cliente" style="text;html=1;align=center;verticalAlign=middle;whiteSpace=wrap;rounded=0;" parent="RbqGqWquLHpoGGyO6dPe-97" vertex="1">
          <mxGeometry x="57.54865806754998" y="7.253521126760575" width="118.23785290808014" height="35.49295774647888" as="geometry" />
        </mxCell>
        <mxCell id="RbqGqWquLHpoGGyO6dPe-99" value="" style="ellipse;whiteSpace=wrap;html=1;aspect=fixed;" parent="RbqGqWquLHpoGGyO6dPe-97" vertex="1">
          <mxGeometry width="50" height="50" as="geometry" />
        </mxCell>
        <mxCell id="RbqGqWquLHpoGGyO6dPe-100" value="" style="shape=actor;whiteSpace=wrap;html=1;" parent="RbqGqWquLHpoGGyO6dPe-97" vertex="1">
          <mxGeometry x="10" y="5" width="30" height="40" as="geometry" />
        </mxCell>
        <mxCell id="RbqGqWquLHpoGGyO6dPe-101" value="" style="group" parent="RbqGqWquLHpoGGyO6dPe-97" vertex="1" connectable="0">
          <mxGeometry x="179.28259149157725" y="7.253521126760575" width="204.3546183302263" height="35.492957746478865" as="geometry" />
        </mxCell>
        <mxCell id="RbqGqWquLHpoGGyO6dPe-102" value="Atualizar?" style="rounded=1;whiteSpace=wrap;html=1;fillColor=#d5e8d4;strokeColor=#82b366;" parent="RbqGqWquLHpoGGyO6dPe-101" vertex="1">
          <mxGeometry x="148.1916381988882" y="-1.4210854715202004e-14" width="56.162980131338074" height="35.49295774647888" as="geometry" />
        </mxCell>
        <mxCell id="RbqGqWquLHpoGGyO6dPe-103" value="Apagar?" style="rounded=1;whiteSpace=wrap;html=1;fillColor=#d5e8d4;strokeColor=#82b366;" parent="RbqGqWquLHpoGGyO6dPe-101" vertex="1">
          <mxGeometry x="72.27284593809304" y="-1.4210854715202004e-14" width="56.162980131338074" height="35.49295774647888" as="geometry" />
        </mxCell>
        <mxCell id="RbqGqWquLHpoGGyO6dPe-104" value="Entrar" style="rounded=1;whiteSpace=wrap;html=1;fillColor=#d5e8d4;strokeColor=#82b366;" parent="RbqGqWquLHpoGGyO6dPe-101" vertex="1">
          <mxGeometry y="-1.4210854715202004e-14" width="56.162980131338074" height="35.49295774647888" as="geometry" />
        </mxCell>
        <mxCell id="RbqGqWquLHpoGGyO6dPe-105" value="" style="group" parent="1" vertex="1" connectable="0">
          <mxGeometry x="460" y="-719.9961971830986" width="383.6372098218035" height="50" as="geometry" />
        </mxCell>
        <mxCell id="RbqGqWquLHpoGGyO6dPe-106" value="Nome do cliente" style="text;html=1;align=center;verticalAlign=middle;whiteSpace=wrap;rounded=0;" parent="RbqGqWquLHpoGGyO6dPe-105" vertex="1">
          <mxGeometry x="57.54865806754998" y="7.253521126760575" width="118.23785290808014" height="35.49295774647888" as="geometry" />
        </mxCell>
        <mxCell id="RbqGqWquLHpoGGyO6dPe-107" value="" style="ellipse;whiteSpace=wrap;html=1;aspect=fixed;" parent="RbqGqWquLHpoGGyO6dPe-105" vertex="1">
          <mxGeometry width="50" height="50" as="geometry" />
        </mxCell>
        <mxCell id="RbqGqWquLHpoGGyO6dPe-108" value="" style="shape=actor;whiteSpace=wrap;html=1;" parent="RbqGqWquLHpoGGyO6dPe-105" vertex="1">
          <mxGeometry x="10" y="5" width="30" height="40" as="geometry" />
        </mxCell>
        <mxCell id="RbqGqWquLHpoGGyO6dPe-109" value="" style="group" parent="RbqGqWquLHpoGGyO6dPe-105" vertex="1" connectable="0">
          <mxGeometry x="179.28259149157725" y="7.253521126760575" width="204.3546183302263" height="35.492957746478865" as="geometry" />
        </mxCell>
        <mxCell id="RbqGqWquLHpoGGyO6dPe-110" value="Atualizar?" style="rounded=1;whiteSpace=wrap;html=1;fillColor=#d5e8d4;strokeColor=#82b366;" parent="RbqGqWquLHpoGGyO6dPe-109" vertex="1">
          <mxGeometry x="148.1916381988882" y="-1.4210854715202004e-14" width="56.162980131338074" height="35.49295774647888" as="geometry" />
        </mxCell>
        <mxCell id="RbqGqWquLHpoGGyO6dPe-111" value="Apagar?" style="rounded=1;whiteSpace=wrap;html=1;fillColor=#d5e8d4;strokeColor=#82b366;" parent="RbqGqWquLHpoGGyO6dPe-109" vertex="1">
          <mxGeometry x="72.27284593809304" y="-1.4210854715202004e-14" width="56.162980131338074" height="35.49295774647888" as="geometry" />
        </mxCell>
        <mxCell id="RbqGqWquLHpoGGyO6dPe-112" value="Entrar" style="rounded=1;whiteSpace=wrap;html=1;fillColor=#d5e8d4;strokeColor=#82b366;" parent="RbqGqWquLHpoGGyO6dPe-109" vertex="1">
          <mxGeometry y="-1.4210854715202004e-14" width="56.162980131338074" height="35.49295774647888" as="geometry" />
        </mxCell>
        <mxCell id="RbqGqWquLHpoGGyO6dPe-113" value="" style="group" parent="1" vertex="1" connectable="0">
          <mxGeometry x="460" y="-399.9961971830986" width="383.6372098218035" height="50" as="geometry" />
        </mxCell>
        <mxCell id="RbqGqWquLHpoGGyO6dPe-114" value="Nome do cliente" style="text;html=1;align=center;verticalAlign=middle;whiteSpace=wrap;rounded=0;" parent="RbqGqWquLHpoGGyO6dPe-113" vertex="1">
          <mxGeometry x="57.54865806754998" y="7.253521126760575" width="118.23785290808014" height="35.49295774647888" as="geometry" />
        </mxCell>
        <mxCell id="RbqGqWquLHpoGGyO6dPe-115" value="" style="ellipse;whiteSpace=wrap;html=1;aspect=fixed;" parent="RbqGqWquLHpoGGyO6dPe-113" vertex="1">
          <mxGeometry width="50" height="50" as="geometry" />
        </mxCell>
        <mxCell id="RbqGqWquLHpoGGyO6dPe-116" value="" style="shape=actor;whiteSpace=wrap;html=1;" parent="RbqGqWquLHpoGGyO6dPe-113" vertex="1">
          <mxGeometry x="10" y="5" width="30" height="40" as="geometry" />
        </mxCell>
        <mxCell id="RbqGqWquLHpoGGyO6dPe-117" value="" style="group" parent="RbqGqWquLHpoGGyO6dPe-113" vertex="1" connectable="0">
          <mxGeometry x="179.28259149157725" y="7.253521126760575" width="204.3546183302263" height="35.492957746478865" as="geometry" />
        </mxCell>
        <mxCell id="RbqGqWquLHpoGGyO6dPe-118" value="Atualizar?" style="rounded=1;whiteSpace=wrap;html=1;fillColor=#d5e8d4;strokeColor=#82b366;" parent="RbqGqWquLHpoGGyO6dPe-117" vertex="1">
          <mxGeometry x="148.1916381988882" y="-1.4210854715202004e-14" width="56.162980131338074" height="35.49295774647888" as="geometry" />
        </mxCell>
        <mxCell id="RbqGqWquLHpoGGyO6dPe-119" value="Apagar?" style="rounded=1;whiteSpace=wrap;html=1;fillColor=#d5e8d4;strokeColor=#82b366;" parent="RbqGqWquLHpoGGyO6dPe-117" vertex="1">
          <mxGeometry x="72.27284593809304" y="-1.4210854715202004e-14" width="56.162980131338074" height="35.49295774647888" as="geometry" />
        </mxCell>
        <mxCell id="RbqGqWquLHpoGGyO6dPe-120" value="Entrar" style="rounded=1;whiteSpace=wrap;html=1;fillColor=#d5e8d4;strokeColor=#82b366;" parent="RbqGqWquLHpoGGyO6dPe-117" vertex="1">
          <mxGeometry y="-1.4210854715202004e-14" width="56.162980131338074" height="35.49295774647888" as="geometry" />
        </mxCell>
        <mxCell id="RbqGqWquLHpoGGyO6dPe-121" value="" style="group" parent="1" vertex="1" connectable="0">
          <mxGeometry x="460" y="-319.9961971830986" width="383.6372098218035" height="50" as="geometry" />
        </mxCell>
        <mxCell id="RbqGqWquLHpoGGyO6dPe-122" value="Nome do cliente" style="text;html=1;align=center;verticalAlign=middle;whiteSpace=wrap;rounded=0;" parent="RbqGqWquLHpoGGyO6dPe-121" vertex="1">
          <mxGeometry x="57.54865806754998" y="7.253521126760575" width="118.23785290808014" height="35.49295774647888" as="geometry" />
        </mxCell>
        <mxCell id="RbqGqWquLHpoGGyO6dPe-123" value="" style="ellipse;whiteSpace=wrap;html=1;aspect=fixed;" parent="RbqGqWquLHpoGGyO6dPe-121" vertex="1">
          <mxGeometry width="50" height="50" as="geometry" />
        </mxCell>
        <mxCell id="RbqGqWquLHpoGGyO6dPe-124" value="" style="shape=actor;whiteSpace=wrap;html=1;" parent="RbqGqWquLHpoGGyO6dPe-121" vertex="1">
          <mxGeometry x="10" y="5" width="30" height="40" as="geometry" />
        </mxCell>
        <mxCell id="RbqGqWquLHpoGGyO6dPe-125" value="" style="group" parent="RbqGqWquLHpoGGyO6dPe-121" vertex="1" connectable="0">
          <mxGeometry x="179.28259149157725" y="7.253521126760575" width="204.3546183302263" height="35.492957746478865" as="geometry" />
        </mxCell>
        <mxCell id="RbqGqWquLHpoGGyO6dPe-126" value="Atualizar?" style="rounded=1;whiteSpace=wrap;html=1;fillColor=#d5e8d4;strokeColor=#82b366;" parent="RbqGqWquLHpoGGyO6dPe-125" vertex="1">
          <mxGeometry x="148.1916381988882" y="-1.4210854715202004e-14" width="56.162980131338074" height="35.49295774647888" as="geometry" />
        </mxCell>
        <mxCell id="RbqGqWquLHpoGGyO6dPe-127" value="Apagar?" style="rounded=1;whiteSpace=wrap;html=1;fillColor=#d5e8d4;strokeColor=#82b366;" parent="RbqGqWquLHpoGGyO6dPe-125" vertex="1">
          <mxGeometry x="72.27284593809304" y="-1.4210854715202004e-14" width="56.162980131338074" height="35.49295774647888" as="geometry" />
        </mxCell>
        <mxCell id="RbqGqWquLHpoGGyO6dPe-128" value="Entrar" style="rounded=1;whiteSpace=wrap;html=1;fillColor=#d5e8d4;strokeColor=#82b366;" parent="RbqGqWquLHpoGGyO6dPe-125" vertex="1">
          <mxGeometry y="-1.4210854715202004e-14" width="56.162980131338074" height="35.49295774647888" as="geometry" />
        </mxCell>
        <mxCell id="EE_h52uyC438iyJsuXbD-3" value="" style="shape=image;verticalLabelPosition=bottom;labelBackgroundColor=default;verticalAlign=top;aspect=fixed;imageAspect=0;image=https://png.pngtree.com/png-clipart/20231005/original/pngtree-iphone-mockup-with-blank-screen-on-transparent-background-png-image_13279256.png;clipPath=inset(9.67% 28% 8% 27.67%);" parent="1" vertex="1">
          <mxGeometry x="1770" y="-1060" width="570.77" height="1060" as="geometry" />
        </mxCell>
        <mxCell id="DSKGHTpD5wMzkbkziwP5-1" value="&lt;font style=&quot;font-size: 36px;&quot;&gt;PÃ¡gina de cadastro&lt;/font&gt;" style="text;html=1;align=center;verticalAlign=middle;whiteSpace=wrap;rounded=0;" parent="1" vertex="1">
          <mxGeometry x="1880.3899999999999" y="-947.9000000000001" width="350" height="30" as="geometry" />
        </mxCell>
        <mxCell id="DSKGHTpD5wMzkbkziwP5-2" value="Nome de usuÃ¡rio:" style="text;html=1;align=center;verticalAlign=middle;whiteSpace=wrap;rounded=0;" parent="1" vertex="1">
          <mxGeometry x="1840" y="-870" width="120" height="30" as="geometry" />
        </mxCell>
        <mxCell id="DSKGHTpD5wMzkbkziwP5-3" value="" style="rounded=1;whiteSpace=wrap;html=1;fillColor=#d5e8d4;strokeColor=#82b366;" parent="1" vertex="1">
          <mxGeometry x="1840" y="-840" width="420" height="50" as="geometry" />
        </mxCell>
        <mxCell id="DSKGHTpD5wMzkbkziwP5-4" value="E-mail" style="text;html=1;align=center;verticalAlign=middle;whiteSpace=wrap;rounded=0;" parent="1" vertex="1">
          <mxGeometry x="1840" y="-750" width="120" height="30" as="geometry" />
        </mxCell>
        <mxCell id="DSKGHTpD5wMzkbkziwP5-6" value="Telefone" style="text;html=1;align=center;verticalAlign=middle;whiteSpace=wrap;rounded=0;" parent="1" vertex="1">
          <mxGeometry x="1830" y="-620" width="120" height="30" as="geometry" />
        </mxCell>
        <mxCell id="DSKGHTpD5wMzkbkziwP5-8" value="EndereÃ§o" style="text;html=1;align=center;verticalAlign=middle;whiteSpace=wrap;rounded=0;" parent="1" vertex="1">
          <mxGeometry x="1830" y="-504" width="120" height="30" as="geometry" />
        </mxCell>
        <mxCell id="DSKGHTpD5wMzkbkziwP5-10" value="Ir" style="rounded=1;whiteSpace=wrap;html=1;fillColor=#d5e8d4;strokeColor=#82b366;" parent="1" vertex="1">
          <mxGeometry x="2170" y="-110" width="90" height="30" as="geometry" />
        </mxCell>
        <mxCell id="DSKGHTpD5wMzkbkziwP5-11" value="" style="rounded=1;whiteSpace=wrap;html=1;fillColor=#d5e8d4;strokeColor=#82b366;" parent="1" vertex="1">
          <mxGeometry x="1840" y="-710" width="420" height="50" as="geometry" />
        </mxCell>
        <mxCell id="DSKGHTpD5wMzkbkziwP5-12" value="" style="rounded=1;whiteSpace=wrap;html=1;fillColor=#d5e8d4;strokeColor=#82b366;" parent="1" vertex="1">
          <mxGeometry x="1840" y="-580" width="420" height="50" as="geometry" />
        </mxCell>
        <mxCell id="DSKGHTpD5wMzkbkziwP5-13" value="" style="rounded=1;whiteSpace=wrap;html=1;fillColor=#d5e8d4;strokeColor=#82b366;" parent="1" vertex="1">
          <mxGeometry x="1840" y="-460" width="420" height="50" as="geometry" />
        </mxCell>
        <mxCell id="FaB08gzDVc-RuZyQUsl5-1" value="" style="shape=image;verticalLabelPosition=bottom;labelBackgroundColor=default;verticalAlign=top;aspect=fixed;imageAspect=0;image=https://png.pngtree.com/png-clipart/20231005/original/pngtree-iphone-mockup-with-blank-screen-on-transparent-background-png-image_13279256.png;clipPath=inset(9.67% 28% 8% 27.67%);" parent="1" vertex="1">
          <mxGeometry x="2460" y="-1060" width="570.77" height="1060" as="geometry" />
        </mxCell>
        <mxCell id="p4KYx9Ay_tRQnupfqdgm-1" value="&lt;font style=&quot;font-size: 36px;&quot;&gt;Cadastro Realizado!&lt;/font&gt;" style="text;html=1;align=center;verticalAlign=middle;whiteSpace=wrap;rounded=0;" parent="1" vertex="1">
          <mxGeometry x="2540.8900000000003" y="-570" width="409" height="30" as="geometry" />
        </mxCell>
        <mxCell id="p4KYx9Ay_tRQnupfqdgm-7" value="&lt;font style=&quot;font-size: 72px;&quot;&gt;Cliente&lt;/font&gt;" style="text;html=1;align=center;verticalAlign=middle;whiteSpace=wrap;rounded=0;" parent="1" vertex="1">
          <mxGeometry x="1245" y="1120" width="930" height="110" as="geometry" />
        </mxCell>
        <mxCell id="p4KYx9Ay_tRQnupfqdgm-13" value="" style="rounded=1;whiteSpace=wrap;html=1;" parent="1" vertex="1">
          <mxGeometry x="454.3900000000001" y="60" width="490" height="1020" as="geometry" />
        </mxCell>
        <mxCell id="p4KYx9Ay_tRQnupfqdgm-15" value="" style="shape=image;verticalLabelPosition=bottom;labelBackgroundColor=default;verticalAlign=top;aspect=fixed;imageAspect=0;image=https://png.pngtree.com/png-clipart/20231005/original/pngtree-iphone-mockup-with-blank-screen-on-transparent-background-png-image_13279256.png;clipPath=inset(9.67% 28% 8% 27.67%);" parent="1" vertex="1">
          <mxGeometry x="414" y="40" width="570.77" height="1060" as="geometry" />
        </mxCell>
        <mxCell id="p4KYx9Ay_tRQnupfqdgm-22" value="Apagar?" style="rounded=1;whiteSpace=wrap;html=1;fillColor=#97D077;strokeColor=#82b366;" parent="1" vertex="1">
          <mxGeometry x="300" y="120" width="126.26" height="60" as="geometry" />
        </mxCell>
        <mxCell id="p4KYx9Ay_tRQnupfqdgm-49" value="Atualizar" style="rounded=1;whiteSpace=wrap;html=1;fillColor=#97D077;strokeColor=#82b366;" parent="1" vertex="1">
          <mxGeometry x="1893.74" y="120" width="126.26" height="60" as="geometry" />
        </mxCell>
        <mxCell id="p4KYx9Ay_tRQnupfqdgm-50" value="Entrar" style="rounded=1;whiteSpace=wrap;html=1;fillColor=#97D077;strokeColor=#82b366;" parent="1" vertex="1">
          <mxGeometry x="1080" y="120" width="126.26" height="60" as="geometry" />
        </mxCell>
        <mxCell id="p4KYx9Ay_tRQnupfqdgm-51" value="" style="group" parent="1" vertex="1" connectable="0">
          <mxGeometry x="1050" y="-1060" width="570.77" height="1060" as="geometry" />
        </mxCell>
        <mxCell id="p4KYx9Ay_tRQnupfqdgm-9" value="" style="rounded=1;whiteSpace=wrap;html=1;" parent="p4KYx9Ay_tRQnupfqdgm-51" vertex="1">
          <mxGeometry x="40" y="20" width="490" height="1020" as="geometry" />
        </mxCell>
        <mxCell id="ciSnoaR9OEVAhfBgUJw6-6" value="" style="shape=image;verticalLabelPosition=bottom;labelBackgroundColor=default;verticalAlign=top;aspect=fixed;imageAspect=0;image=https://png.pngtree.com/png-clipart/20231005/original/pngtree-iphone-mockup-with-blank-screen-on-transparent-background-png-image_13279256.png;clipPath=inset(9.67% 28% 8% 27.67%);" parent="p4KYx9Ay_tRQnupfqdgm-51" vertex="1">
          <mxGeometry width="570.77" height="1060" as="geometry" />
        </mxCell>
        <mxCell id="ciSnoaR9OEVAhfBgUJw6-7" value="procurar cliente" style="rounded=1;whiteSpace=wrap;html=1;" parent="p4KYx9Ay_tRQnupfqdgm-51" vertex="1">
          <mxGeometry x="70" y="101.04999999999995" width="391.66" height="40" as="geometry" />
        </mxCell>
        <mxCell id="ciSnoaR9OEVAhfBgUJw6-8" value="" style="shape=image;html=1;verticalLabelPosition=bottom;verticalAlign=top;imageAspect=1;aspect=fixed;image=https://images.vexels.com/media/users/3/204845/isolated/lists/31084e04c65187ba8d1ecb9880f5d29f-design-de-icone-de-traco-de-lupa.png;" parent="p4KYx9Ay_tRQnupfqdgm-51" vertex="1">
          <mxGeometry x="470.0027535647705" y="100" width="35.88519945349693" height="42.095974814605675" as="geometry" />
        </mxCell>
        <mxCell id="EE_h52uyC438iyJsuXbD-1" value="NÃ£o encontrado&amp;nbsp;" style="text;html=1;align=center;verticalAlign=middle;whiteSpace=wrap;rounded=0;" parent="p4KYx9Ay_tRQnupfqdgm-51" vertex="1">
          <mxGeometry x="175.38999999999987" y="180" width="220" height="30" as="geometry" />
        </mxCell>
        <mxCell id="EE_h52uyC438iyJsuXbD-2" value="Fazer Cadastro" style="rounded=1;whiteSpace=wrap;html=1;fillColor=#d5e8d4;strokeColor=#82b366;" parent="p4KYx9Ay_tRQnupfqdgm-51" vertex="1">
          <mxGeometry x="225.38999999999987" y="220" width="120" height="60" as="geometry" />
        </mxCell>
        <mxCell id="p4KYx9Ay_tRQnupfqdgm-67" value="" style="rounded=1;whiteSpace=wrap;html=1;" parent="1" vertex="1">
          <mxGeometry x="2070" y="60" width="490" height="1020" as="geometry" />
        </mxCell>
        <mxCell id="p4KYx9Ay_tRQnupfqdgm-68" value="" style="shape=image;verticalLabelPosition=bottom;labelBackgroundColor=default;verticalAlign=top;aspect=fixed;imageAspect=0;image=https://png.pngtree.com/png-clipart/20231005/original/pngtree-iphone-mockup-with-blank-screen-on-transparent-background-png-image_13279256.png;clipPath=inset(9.67% 28% 8% 27.67%);" parent="1" vertex="1">
          <mxGeometry x="2020" y="40" width="570.77" height="1060" as="geometry" />
        </mxCell>
        <mxCell id="p4KYx9Ay_tRQnupfqdgm-69" value="&lt;font style=&quot;font-size: 36px;&quot;&gt;PÃ¡gina de cadastro&lt;/font&gt;" style="text;html=1;align=center;verticalAlign=middle;whiteSpace=wrap;rounded=0;" parent="1" vertex="1">
          <mxGeometry x="2130.39" y="152.0999999999999" width="350" height="30" as="geometry" />
        </mxCell>
        <mxCell id="p4KYx9Ay_tRQnupfqdgm-70" value="Nome de usuÃ¡rio:" style="text;html=1;align=center;verticalAlign=middle;whiteSpace=wrap;rounded=0;" parent="1" vertex="1">
          <mxGeometry x="2090" y="230" width="120" height="30" as="geometry" />
        </mxCell>
        <mxCell id="p4KYx9Ay_tRQnupfqdgm-71" value="" style="rounded=1;whiteSpace=wrap;html=1;fillColor=#d5e8d4;strokeColor=#82b366;" parent="1" vertex="1">
          <mxGeometry x="2090" y="260" width="420" height="50" as="geometry" />
        </mxCell>
        <mxCell id="p4KYx9Ay_tRQnupfqdgm-72" value="E-mail" style="text;html=1;align=center;verticalAlign=middle;whiteSpace=wrap;rounded=0;" parent="1" vertex="1">
          <mxGeometry x="2090" y="350" width="120" height="30" as="geometry" />
        </mxCell>
        <mxCell id="p4KYx9Ay_tRQnupfqdgm-73" value="Telefone" style="text;html=1;align=center;verticalAlign=middle;whiteSpace=wrap;rounded=0;" parent="1" vertex="1">
          <mxGeometry x="2080" y="480" width="120" height="30" as="geometry" />
        </mxCell>
        <mxCell id="p4KYx9Ay_tRQnupfqdgm-74" value="EndereÃ§o" style="text;html=1;align=center;verticalAlign=middle;whiteSpace=wrap;rounded=0;" parent="1" vertex="1">
          <mxGeometry x="2080" y="596" width="120" height="30" as="geometry" />
        </mxCell>
        <mxCell id="p4KYx9Ay_tRQnupfqdgm-75" value="Ir" style="rounded=1;whiteSpace=wrap;html=1;fillColor=#d5e8d4;strokeColor=#82b366;" parent="1" vertex="1">
          <mxGeometry x="2420" y="990" width="90" height="30" as="geometry" />
        </mxCell>
        <mxCell id="p4KYx9Ay_tRQnupfqdgm-76" value="" style="rounded=1;whiteSpace=wrap;html=1;fillColor=#d5e8d4;strokeColor=#82b366;" parent="1" vertex="1">
          <mxGeometry x="2090" y="390" width="420" height="50" as="geometry" />
        </mxCell>
        <mxCell id="p4KYx9Ay_tRQnupfqdgm-77" value="" style="rounded=1;whiteSpace=wrap;html=1;fillColor=#d5e8d4;strokeColor=#82b366;" parent="1" vertex="1">
          <mxGeometry x="2090" y="520" width="420" height="50" as="geometry" />
        </mxCell>
        <mxCell id="p4KYx9Ay_tRQnupfqdgm-78" value="" style="rounded=1;whiteSpace=wrap;html=1;fillColor=#d5e8d4;strokeColor=#82b366;" parent="1" vertex="1">
          <mxGeometry x="2090" y="640" width="420" height="50" as="geometry" />
        </mxCell>
        <mxCell id="p4KYx9Ay_tRQnupfqdgm-54" value="" style="rounded=1;whiteSpace=wrap;html=1;" parent="1" vertex="1">
          <mxGeometry x="1250" y="75" width="490" height="1020" as="geometry" />
        </mxCell>
        <mxCell id="p4KYx9Ay_tRQnupfqdgm-55" value="" style="shape=image;verticalLabelPosition=bottom;labelBackgroundColor=default;verticalAlign=top;aspect=fixed;imageAspect=0;image=https://png.pngtree.com/png-clipart/20231005/original/pngtree-iphone-mockup-with-blank-screen-on-transparent-background-png-image_13279256.png;clipPath=inset(9.67% 28% 8% 27.67%);" parent="1" vertex="1">
          <mxGeometry x="1210" y="55" width="570.77" height="1060" as="geometry" />
        </mxCell>
        <mxCell id="p4KYx9Ay_tRQnupfqdgm-80" value="&lt;font style=&quot;font-size: 36px;&quot;&gt;Dados do cliente&lt;/font&gt;" style="text;html=1;align=center;verticalAlign=middle;whiteSpace=wrap;rounded=0;" parent="1" vertex="1">
          <mxGeometry x="1320.39" y="180" width="350" height="30" as="geometry" />
        </mxCell>
        <mxCell id="p4KYx9Ay_tRQnupfqdgm-89" value="Nome de usuÃ¡rio:" style="text;html=1;align=center;verticalAlign=middle;whiteSpace=wrap;rounded=0;" parent="1" vertex="1">
          <mxGeometry x="1280" y="303.95000000000005" width="120" height="30" as="geometry" />
        </mxCell>
        <mxCell id="p4KYx9Ay_tRQnupfqdgm-90" value="" style="rounded=1;whiteSpace=wrap;html=1;fillColor=#d5e8d4;strokeColor=#82b366;" parent="1" vertex="1">
          <mxGeometry x="1280" y="333.95000000000005" width="420" height="50" as="geometry" />
        </mxCell>
        <mxCell id="p4KYx9Ay_tRQnupfqdgm-91" value="E-mail" style="text;html=1;align=center;verticalAlign=middle;whiteSpace=wrap;rounded=0;" parent="1" vertex="1">
          <mxGeometry x="1280" y="423.95000000000005" width="120" height="30" as="geometry" />
        </mxCell>
        <mxCell id="p4KYx9Ay_tRQnupfqdgm-92" value="Telefone" style="text;html=1;align=center;verticalAlign=middle;whiteSpace=wrap;rounded=0;" parent="1" vertex="1">
          <mxGeometry x="1270" y="553.95" width="120" height="30" as="geometry" />
        </mxCell>
        <mxCell id="p4KYx9Ay_tRQnupfqdgm-93" value="EndereÃ§o" style="text;html=1;align=center;verticalAlign=middle;whiteSpace=wrap;rounded=0;" parent="1" vertex="1">
          <mxGeometry x="1270" y="669.95" width="120" height="30" as="geometry" />
        </mxCell>
        <mxCell id="p4KYx9Ay_tRQnupfqdgm-94" value="" style="rounded=1;whiteSpace=wrap;html=1;fillColor=#d5e8d4;strokeColor=#82b366;" parent="1" vertex="1">
          <mxGeometry x="1280" y="463.95000000000005" width="420" height="50" as="geometry" />
        </mxCell>
        <mxCell id="p4KYx9Ay_tRQnupfqdgm-95" value="" style="rounded=1;whiteSpace=wrap;html=1;fillColor=#d5e8d4;strokeColor=#82b366;" parent="1" vertex="1">
          <mxGeometry x="1280" y="593.95" width="420" height="50" as="geometry" />
        </mxCell>
        <mxCell id="p4KYx9Ay_tRQnupfqdgm-96" value="" style="rounded=1;whiteSpace=wrap;html=1;fillColor=#d5e8d4;strokeColor=#82b366;" parent="1" vertex="1">
          <mxGeometry x="1280" y="713.95" width="420" height="50" as="geometry" />
        </mxCell>
        <mxCell id="p4KYx9Ay_tRQnupfqdgm-97" value="&lt;font style=&quot;font-size: 36px;&quot;&gt;VocÃª deseja apagar esse cliente?&lt;/font&gt;" style="text;html=1;align=center;verticalAlign=middle;whiteSpace=wrap;rounded=0;" parent="1" vertex="1">
          <mxGeometry x="524.39" y="160" width="350" height="110" as="geometry" />
        </mxCell>
        <mxCell id="p4KYx9Ay_tRQnupfqdgm-98" value="Sim" style="rounded=1;whiteSpace=wrap;html=1;fillColor=#d5e8d4;strokeColor=#82b366;" parent="1" vertex="1">
          <mxGeometry x="524.39" y="310" width="126.26" height="60" as="geometry" />
        </mxCell>
        <mxCell id="p4KYx9Ay_tRQnupfqdgm-99" value="NÃ£o" style="rounded=1;whiteSpace=wrap;html=1;fillColor=#f8cecc;strokeColor=#b85450;" parent="1" vertex="1">
          <mxGeometry x="733.74" y="310" width="126.26" height="60" as="geometry" />
        </mxCell>
        <mxCell id="xBpnV0RaYjXp5-zyp5ir-1" value="" style="shape=ext;double=1;rounded=0;whiteSpace=wrap;html=1;fillColor=#FF99CC;strokeColor=#FF66B3;strokeWidth=6;" parent="1" vertex="1">
          <mxGeometry x="230" y="1410" width="2940" height="2360" as="geometry" />
        </mxCell>
        <mxCell id="xBpnV0RaYjXp5-zyp5ir-2" value="" style="rounded=1;whiteSpace=wrap;html=1;" parent="1" vertex="1">
          <mxGeometry x="2510" y="1460" width="490" height="1020" as="geometry" />
        </mxCell>
        <mxCell id="xBpnV0RaYjXp5-zyp5ir-3" value="" style="rounded=1;whiteSpace=wrap;html=1;" parent="1" vertex="1">
          <mxGeometry x="1820" y="1460" width="490" height="1020" as="geometry" />
        </mxCell>
        <mxCell id="xBpnV0RaYjXp5-zyp5ir-4" value="" style="rounded=1;whiteSpace=wrap;html=1;" parent="1" vertex="1">
          <mxGeometry x="430.39" y="1460" width="490" height="1020" as="geometry" />
        </mxCell>
        <mxCell id="xBpnV0RaYjXp5-zyp5ir-5" value="" style="shape=image;verticalLabelPosition=bottom;labelBackgroundColor=default;verticalAlign=top;aspect=fixed;imageAspect=0;image=https://png.pngtree.com/png-clipart/20231005/original/pngtree-iphone-mockup-with-blank-screen-on-transparent-background-png-image_13279256.png;clipPath=inset(9.67% 28% 8% 27.67%);" parent="1" vertex="1">
          <mxGeometry x="390" y="1440" width="570.77" height="1060" as="geometry" />
        </mxCell>
        <mxCell id="xBpnV0RaYjXp5-zyp5ir-6" value="Procurar Fornecedor" style="rounded=1;whiteSpace=wrap;html=1;" parent="1" vertex="1">
          <mxGeometry x="460" y="1541.05" width="391.66" height="40" as="geometry" />
        </mxCell>
        <mxCell id="xBpnV0RaYjXp5-zyp5ir-7" value="" style="shape=image;html=1;verticalLabelPosition=bottom;verticalAlign=top;imageAspect=1;aspect=fixed;image=https://images.vexels.com/media/users/3/204845/isolated/lists/31084e04c65187ba8d1ecb9880f5d29f-design-de-icone-de-traco-de-lupa.png;" parent="1" vertex="1">
          <mxGeometry x="860.0027535647705" y="1540" width="35.88519945349693" height="42.095974814605675" as="geometry" />
        </mxCell>
        <mxCell id="xBpnV0RaYjXp5-zyp5ir-40" value="" style="group" parent="1" vertex="1" connectable="0">
          <mxGeometry x="460" y="1610.0038028169015" width="396.1672098218035" height="50" as="geometry" />
        </mxCell>
        <mxCell id="xBpnV0RaYjXp5-zyp5ir-41" value="Nome do Fornecedor" style="text;html=1;align=center;verticalAlign=middle;whiteSpace=wrap;rounded=0;" parent="xBpnV0RaYjXp5-zyp5ir-40" vertex="1">
          <mxGeometry x="57.54865806754998" y="7.253521126760575" width="118.23785290808014" height="35.49295774647888" as="geometry" />
        </mxCell>
        <mxCell id="xBpnV0RaYjXp5-zyp5ir-42" value="" style="ellipse;whiteSpace=wrap;html=1;aspect=fixed;" parent="xBpnV0RaYjXp5-zyp5ir-40" vertex="1">
          <mxGeometry width="50" height="50" as="geometry" />
        </mxCell>
        <mxCell id="xBpnV0RaYjXp5-zyp5ir-43" value="" style="shape=actor;whiteSpace=wrap;html=1;" parent="xBpnV0RaYjXp5-zyp5ir-40" vertex="1">
          <mxGeometry x="10" y="5" width="30" height="40" as="geometry" />
        </mxCell>
        <mxCell id="xBpnV0RaYjXp5-zyp5ir-47" value="Entrar" style="rounded=1;whiteSpace=wrap;html=1;fillColor=#FFE8FF;strokeColor=#FFE8FF;fontColor=#262626;" parent="xBpnV0RaYjXp5-zyp5ir-40" vertex="1">
          <mxGeometry x="190.00259149157728" y="7.253521126760461" width="56.162980131338074" height="35.49295774647888" as="geometry" />
        </mxCell>
        <mxCell id="xBpnV0RaYjXp5-zyp5ir-46" value="Apagar?" style="rounded=1;whiteSpace=wrap;html=1;fillColor=#FFE8FF;strokeColor=#FFE8FF;fontColor=#262626;" parent="xBpnV0RaYjXp5-zyp5ir-40" vertex="1">
          <mxGeometry x="269.99543742967023" y="9.503521126760461" width="56.162980131338074" height="35.49295774647888" as="geometry" />
        </mxCell>
        <mxCell id="xBpnV0RaYjXp5-zyp5ir-45" value="Atualizar?" style="rounded=1;whiteSpace=wrap;html=1;fillColor=#FFE8FF;strokeColor=#FFE8FF;fontColor=#262626;" parent="xBpnV0RaYjXp5-zyp5ir-40" vertex="1">
          <mxGeometry x="340.0042296904654" y="9.503521126760461" width="56.162980131338074" height="35.49295774647888" as="geometry" />
        </mxCell>
        <mxCell id="xBpnV0RaYjXp5-zyp5ir-72" value="" style="shape=image;verticalLabelPosition=bottom;labelBackgroundColor=default;verticalAlign=top;aspect=fixed;imageAspect=0;image=https://png.pngtree.com/png-clipart/20231005/original/pngtree-iphone-mockup-with-blank-screen-on-transparent-background-png-image_13279256.png;clipPath=inset(9.67% 28% 8% 27.67%);" parent="1" vertex="1">
          <mxGeometry x="1770" y="1440" width="570.77" height="1060" as="geometry" />
        </mxCell>
        <mxCell id="xBpnV0RaYjXp5-zyp5ir-73" value="&lt;font style=&quot;font-size: 36px;&quot;&gt;PÃ¡gina de cadastro&lt;/font&gt;" style="text;html=1;align=center;verticalAlign=middle;whiteSpace=wrap;rounded=0;" parent="1" vertex="1">
          <mxGeometry x="1880.3899999999999" y="1552.1" width="350" height="30" as="geometry" />
        </mxCell>
        <mxCell id="xBpnV0RaYjXp5-zyp5ir-74" value="Nome do Fornecedor:" style="text;html=1;align=center;verticalAlign=middle;whiteSpace=wrap;rounded=0;" parent="1" vertex="1">
          <mxGeometry x="1850" y="1630" width="120" height="30" as="geometry" />
        </mxCell>
        <mxCell id="xBpnV0RaYjXp5-zyp5ir-75" value="" style="rounded=1;whiteSpace=wrap;html=1;fillColor=#FFE8FF;strokeColor=#FFE8FF;" parent="1" vertex="1">
          <mxGeometry x="1840" y="1660" width="420" height="50" as="geometry" />
        </mxCell>
        <mxCell id="xBpnV0RaYjXp5-zyp5ir-76" value="E-mail" style="text;html=1;align=center;verticalAlign=middle;whiteSpace=wrap;rounded=0;" parent="1" vertex="1">
          <mxGeometry x="1840" y="1750" width="120" height="30" as="geometry" />
        </mxCell>
        <mxCell id="xBpnV0RaYjXp5-zyp5ir-77" value="Telefone" style="text;html=1;align=center;verticalAlign=middle;whiteSpace=wrap;rounded=0;" parent="1" vertex="1">
          <mxGeometry x="1830" y="1880" width="120" height="30" as="geometry" />
        </mxCell>
        <mxCell id="xBpnV0RaYjXp5-zyp5ir-78" value="EndereÃ§o" style="text;html=1;align=center;verticalAlign=middle;whiteSpace=wrap;rounded=0;" parent="1" vertex="1">
          <mxGeometry x="1830" y="1996" width="120" height="30" as="geometry" />
        </mxCell>
        <mxCell id="xBpnV0RaYjXp5-zyp5ir-79" value="Ir" style="rounded=1;whiteSpace=wrap;html=1;fillColor=#FFE8FF;strokeColor=#FFE8FF;" parent="1" vertex="1">
          <mxGeometry x="2170" y="2390" width="90" height="30" as="geometry" />
        </mxCell>
        <mxCell id="xBpnV0RaYjXp5-zyp5ir-80" value="" style="rounded=1;whiteSpace=wrap;html=1;fillColor=#FFE8FF;strokeColor=#FFE8FF;" parent="1" vertex="1">
          <mxGeometry x="1840" y="1790" width="420" height="50" as="geometry" />
        </mxCell>
        <mxCell id="xBpnV0RaYjXp5-zyp5ir-81" value="" style="rounded=1;whiteSpace=wrap;html=1;fillColor=#FFE8FF;strokeColor=#FFE8FF;" parent="1" vertex="1">
          <mxGeometry x="1840" y="1920" width="420" height="50" as="geometry" />
        </mxCell>
        <mxCell id="xBpnV0RaYjXp5-zyp5ir-82" value="" style="rounded=1;whiteSpace=wrap;html=1;fillColor=#FFE8FF;strokeColor=#FFE8FF;" parent="1" vertex="1">
          <mxGeometry x="1840" y="2040" width="420" height="50" as="geometry" />
        </mxCell>
        <mxCell id="xBpnV0RaYjXp5-zyp5ir-83" value="" style="shape=image;verticalLabelPosition=bottom;labelBackgroundColor=default;verticalAlign=top;aspect=fixed;imageAspect=0;image=https://png.pngtree.com/png-clipart/20231005/original/pngtree-iphone-mockup-with-blank-screen-on-transparent-background-png-image_13279256.png;clipPath=inset(9.67% 28% 8% 27.67%);" parent="1" vertex="1">
          <mxGeometry x="2460" y="1440" width="570.77" height="1060" as="geometry" />
        </mxCell>
        <mxCell id="xBpnV0RaYjXp5-zyp5ir-84" value="&lt;font style=&quot;font-size: 36px;&quot;&gt;Cadastro Realizado!&lt;/font&gt;" style="text;html=1;align=center;verticalAlign=middle;whiteSpace=wrap;rounded=0;" parent="1" vertex="1">
          <mxGeometry x="2540.8900000000003" y="1930" width="409" height="30" as="geometry" />
        </mxCell>
        <mxCell id="xBpnV0RaYjXp5-zyp5ir-85" value="&lt;font style=&quot;font-size: 72px;&quot;&gt;Fornecedores&lt;/font&gt;" style="text;html=1;align=center;verticalAlign=middle;whiteSpace=wrap;rounded=0;" parent="1" vertex="1">
          <mxGeometry x="1245" y="3620" width="930" height="110" as="geometry" />
        </mxCell>
        <mxCell id="xBpnV0RaYjXp5-zyp5ir-86" value="" style="rounded=1;whiteSpace=wrap;html=1;" parent="1" vertex="1">
          <mxGeometry x="454.3900000000001" y="2560" width="490" height="1020" as="geometry" />
        </mxCell>
        <mxCell id="xBpnV0RaYjXp5-zyp5ir-87" value="" style="shape=image;verticalLabelPosition=bottom;labelBackgroundColor=default;verticalAlign=top;aspect=fixed;imageAspect=0;image=https://png.pngtree.com/png-clipart/20231005/original/pngtree-iphone-mockup-with-blank-screen-on-transparent-background-png-image_13279256.png;clipPath=inset(9.67% 28% 8% 27.67%);" parent="1" vertex="1">
          <mxGeometry x="414" y="2540" width="570.77" height="1060" as="geometry" />
        </mxCell>
        <mxCell id="xBpnV0RaYjXp5-zyp5ir-88" value="Apagar?" style="rounded=1;whiteSpace=wrap;html=1;fillColor=#FFE8FF;strokeColor=#FFE8FF;" parent="1" vertex="1">
          <mxGeometry x="300" y="2620" width="126.26" height="60" as="geometry" />
        </mxCell>
        <mxCell id="xBpnV0RaYjXp5-zyp5ir-89" value="Atualizar" style="rounded=1;whiteSpace=wrap;html=1;fillColor=#FFE8FF;strokeColor=#FFE8FF;" parent="1" vertex="1">
          <mxGeometry x="1893.74" y="2620" width="126.26" height="60" as="geometry" />
        </mxCell>
        <mxCell id="xBpnV0RaYjXp5-zyp5ir-90" value="Entrar" style="rounded=1;whiteSpace=wrap;html=1;fillColor=#FFE8FF;strokeColor=#FFE8FF;" parent="1" vertex="1">
          <mxGeometry x="1080" y="2620" width="126.26" height="60" as="geometry" />
        </mxCell>
        <mxCell id="xBpnV0RaYjXp5-zyp5ir-91" value="" style="group" parent="1" vertex="1" connectable="0">
          <mxGeometry x="1050" y="1440" width="570.77" height="1060" as="geometry" />
        </mxCell>
        <mxCell id="xBpnV0RaYjXp5-zyp5ir-92" value="" style="rounded=1;whiteSpace=wrap;html=1;" parent="xBpnV0RaYjXp5-zyp5ir-91" vertex="1">
          <mxGeometry x="40" y="20" width="490" height="1020" as="geometry" />
        </mxCell>
        <mxCell id="xBpnV0RaYjXp5-zyp5ir-93" value="" style="shape=image;verticalLabelPosition=bottom;labelBackgroundColor=default;verticalAlign=top;aspect=fixed;imageAspect=0;image=https://png.pngtree.com/png-clipart/20231005/original/pngtree-iphone-mockup-with-blank-screen-on-transparent-background-png-image_13279256.png;clipPath=inset(9.67% 28% 8% 27.67%);" parent="xBpnV0RaYjXp5-zyp5ir-91" vertex="1">
          <mxGeometry width="570.77" height="1060" as="geometry" />
        </mxCell>
        <mxCell id="xBpnV0RaYjXp5-zyp5ir-94" value="Procurar Fornecedor" style="rounded=1;whiteSpace=wrap;html=1;" parent="xBpnV0RaYjXp5-zyp5ir-91" vertex="1">
          <mxGeometry x="70" y="101.04999999999995" width="391.66" height="40" as="geometry" />
        </mxCell>
        <mxCell id="xBpnV0RaYjXp5-zyp5ir-95" value="" style="shape=image;html=1;verticalLabelPosition=bottom;verticalAlign=top;imageAspect=1;aspect=fixed;image=https://images.vexels.com/media/users/3/204845/isolated/lists/31084e04c65187ba8d1ecb9880f5d29f-design-de-icone-de-traco-de-lupa.png;" parent="xBpnV0RaYjXp5-zyp5ir-91" vertex="1">
          <mxGeometry x="470.0027535647705" y="100" width="35.88519945349693" height="42.095974814605675" as="geometry" />
        </mxCell>
        <mxCell id="xBpnV0RaYjXp5-zyp5ir-96" value="NÃ£o encontrado&amp;nbsp;" style="text;html=1;align=center;verticalAlign=middle;whiteSpace=wrap;rounded=0;" parent="xBpnV0RaYjXp5-zyp5ir-91" vertex="1">
          <mxGeometry x="175.38999999999987" y="180" width="220" height="30" as="geometry" />
        </mxCell>
        <mxCell id="xBpnV0RaYjXp5-zyp5ir-97" value="Fazer Cadastro" style="rounded=1;whiteSpace=wrap;html=1;fillColor=#FFE8FF;strokeColor=#FFE8FF;" parent="xBpnV0RaYjXp5-zyp5ir-91" vertex="1">
          <mxGeometry x="225.38999999999987" y="220" width="120" height="60" as="geometry" />
        </mxCell>
        <mxCell id="xBpnV0RaYjXp5-zyp5ir-98" value="" style="rounded=1;whiteSpace=wrap;html=1;" parent="1" vertex="1">
          <mxGeometry x="2070" y="2560" width="490" height="1020" as="geometry" />
        </mxCell>
        <mxCell id="xBpnV0RaYjXp5-zyp5ir-99" value="" style="shape=image;verticalLabelPosition=bottom;labelBackgroundColor=default;verticalAlign=top;aspect=fixed;imageAspect=0;image=https://png.pngtree.com/png-clipart/20231005/original/pngtree-iphone-mockup-with-blank-screen-on-transparent-background-png-image_13279256.png;clipPath=inset(9.67% 28% 8% 27.67%);" parent="1" vertex="1">
          <mxGeometry x="2020" y="2540" width="570.77" height="1060" as="geometry" />
        </mxCell>
        <mxCell id="xBpnV0RaYjXp5-zyp5ir-100" value="&lt;font style=&quot;font-size: 36px;&quot;&gt;PÃ¡gina de cadastro&lt;/font&gt;" style="text;html=1;align=center;verticalAlign=middle;whiteSpace=wrap;rounded=0;" parent="1" vertex="1">
          <mxGeometry x="2130.39" y="2652.1" width="350" height="30" as="geometry" />
        </mxCell>
        <mxCell id="xBpnV0RaYjXp5-zyp5ir-101" value="Nome de usuÃ¡rio:" style="text;html=1;align=center;verticalAlign=middle;whiteSpace=wrap;rounded=0;" parent="1" vertex="1">
          <mxGeometry x="2090" y="2730" width="120" height="30" as="geometry" />
        </mxCell>
        <mxCell id="xBpnV0RaYjXp5-zyp5ir-102" value="" style="rounded=1;whiteSpace=wrap;html=1;fillColor=#FFE8FF;strokeColor=#FFE8FF;" parent="1" vertex="1">
          <mxGeometry x="2090" y="2760" width="420" height="50" as="geometry" />
        </mxCell>
        <mxCell id="xBpnV0RaYjXp5-zyp5ir-103" value="E-mail" style="text;html=1;align=center;verticalAlign=middle;whiteSpace=wrap;rounded=0;fillColor=#FFFFFF;strokeColor=#FFFFFF;" parent="1" vertex="1">
          <mxGeometry x="2090" y="2850" width="120" height="30" as="geometry" />
        </mxCell>
        <mxCell id="xBpnV0RaYjXp5-zyp5ir-104" value="Telefone" style="text;html=1;align=center;verticalAlign=middle;whiteSpace=wrap;rounded=0;fillColor=#FFFFFF;strokeColor=#FFFFFF;" parent="1" vertex="1">
          <mxGeometry x="2080" y="2980" width="120" height="30" as="geometry" />
        </mxCell>
        <mxCell id="xBpnV0RaYjXp5-zyp5ir-105" value="EndereÃ§o" style="text;html=1;align=center;verticalAlign=middle;whiteSpace=wrap;rounded=0;fillColor=#FFFFFF;strokeColor=#FFFFFF;" parent="1" vertex="1">
          <mxGeometry x="2080" y="3096" width="120" height="30" as="geometry" />
        </mxCell>
        <mxCell id="xBpnV0RaYjXp5-zyp5ir-106" value="Ir" style="rounded=1;whiteSpace=wrap;html=1;fillColor=#FFE8FF;strokeColor=#FFE8FF;" parent="1" vertex="1">
          <mxGeometry x="2420" y="3490" width="90" height="30" as="geometry" />
        </mxCell>
        <mxCell id="xBpnV0RaYjXp5-zyp5ir-107" value="" style="rounded=1;whiteSpace=wrap;html=1;fillColor=#FFE8FF;strokeColor=#FFE8FF;" parent="1" vertex="1">
          <mxGeometry x="2090" y="2890" width="420" height="50" as="geometry" />
        </mxCell>
        <mxCell id="xBpnV0RaYjXp5-zyp5ir-108" value="" style="rounded=1;whiteSpace=wrap;html=1;fillColor=#FFE8FF;strokeColor=#FFE8FF;" parent="1" vertex="1">
          <mxGeometry x="2090" y="3020" width="420" height="50" as="geometry" />
        </mxCell>
        <mxCell id="xBpnV0RaYjXp5-zyp5ir-109" value="" style="rounded=1;whiteSpace=wrap;html=1;fillColor=#FFE8FF;strokeColor=#FFE8FF;" parent="1" vertex="1">
          <mxGeometry x="2090" y="3140" width="420" height="50" as="geometry" />
        </mxCell>
        <mxCell id="xBpnV0RaYjXp5-zyp5ir-110" value="" style="rounded=1;whiteSpace=wrap;html=1;" parent="1" vertex="1">
          <mxGeometry x="1250" y="2575" width="490" height="1020" as="geometry" />
        </mxCell>
        <mxCell id="xBpnV0RaYjXp5-zyp5ir-111" value="" style="shape=image;verticalLabelPosition=bottom;labelBackgroundColor=default;verticalAlign=top;aspect=fixed;imageAspect=0;image=https://png.pngtree.com/png-clipart/20231005/original/pngtree-iphone-mockup-with-blank-screen-on-transparent-background-png-image_13279256.png;clipPath=inset(9.67% 28% 8% 27.67%);" parent="1" vertex="1">
          <mxGeometry x="1210" y="2555" width="570.77" height="1060" as="geometry" />
        </mxCell>
        <mxCell id="xBpnV0RaYjXp5-zyp5ir-112" value="&lt;font style=&quot;font-size: 36px;&quot;&gt;Dados do cliente&lt;/font&gt;" style="text;html=1;align=center;verticalAlign=middle;whiteSpace=wrap;rounded=0;" parent="1" vertex="1">
          <mxGeometry x="1320.39" y="2680" width="350" height="30" as="geometry" />
        </mxCell>
        <mxCell id="xBpnV0RaYjXp5-zyp5ir-113" value="Nome de usuÃ¡rio:" style="text;html=1;align=center;verticalAlign=middle;whiteSpace=wrap;rounded=0;" parent="1" vertex="1">
          <mxGeometry x="1280" y="2803.95" width="120" height="30" as="geometry" />
        </mxCell>
        <mxCell id="xBpnV0RaYjXp5-zyp5ir-114" value="" style="rounded=1;whiteSpace=wrap;html=1;fillColor=#FFE8FF;strokeColor=#FFE8FF;" parent="1" vertex="1">
          <mxGeometry x="1280" y="2833.95" width="420" height="50" as="geometry" />
        </mxCell>
        <mxCell id="xBpnV0RaYjXp5-zyp5ir-115" value="E-mail" style="text;html=1;align=center;verticalAlign=middle;whiteSpace=wrap;rounded=0;fillColor=#FFFFFF;strokeColor=#FFFFFF;" parent="1" vertex="1">
          <mxGeometry x="1280" y="2923.95" width="120" height="30" as="geometry" />
        </mxCell>
        <mxCell id="xBpnV0RaYjXp5-zyp5ir-116" value="Telefone" style="text;html=1;align=center;verticalAlign=middle;whiteSpace=wrap;rounded=0;fillColor=#FFFFFF;strokeColor=#FFFFFF;" parent="1" vertex="1">
          <mxGeometry x="1270" y="3053.95" width="120" height="30" as="geometry" />
        </mxCell>
        <mxCell id="xBpnV0RaYjXp5-zyp5ir-117" value="EndereÃ§o" style="text;html=1;align=center;verticalAlign=middle;whiteSpace=wrap;rounded=0;fillColor=#FFFFFF;strokeColor=#FFFFFF;" parent="1" vertex="1">
          <mxGeometry x="1270" y="3169.95" width="120" height="30" as="geometry" />
        </mxCell>
        <mxCell id="xBpnV0RaYjXp5-zyp5ir-118" value="" style="rounded=1;whiteSpace=wrap;html=1;fillColor=#FFE8FF;strokeColor=#FFE8FF;" parent="1" vertex="1">
          <mxGeometry x="1280" y="2963.95" width="420" height="50" as="geometry" />
        </mxCell>
        <mxCell id="xBpnV0RaYjXp5-zyp5ir-119" value="" style="rounded=1;whiteSpace=wrap;html=1;fillColor=#FFE8FF;strokeColor=#FFE8FF;" parent="1" vertex="1">
          <mxGeometry x="1280" y="3093.95" width="420" height="50" as="geometry" />
        </mxCell>
        <mxCell id="xBpnV0RaYjXp5-zyp5ir-120" value="" style="rounded=1;whiteSpace=wrap;html=1;fillColor=#FFE8FF;strokeColor=#FFE8FF;" parent="1" vertex="1">
          <mxGeometry x="1280" y="3213.95" width="420" height="50" as="geometry" />
        </mxCell>
        <mxCell id="xBpnV0RaYjXp5-zyp5ir-121" value="&lt;font style=&quot;font-size: 36px;&quot;&gt;VocÃª deseja apagar esse cliente?&lt;/font&gt;" style="text;html=1;align=center;verticalAlign=middle;whiteSpace=wrap;rounded=0;" parent="1" vertex="1">
          <mxGeometry x="524.39" y="2660" width="350" height="110" as="geometry" />
        </mxCell>
        <mxCell id="xBpnV0RaYjXp5-zyp5ir-122" value="Sim" style="rounded=1;whiteSpace=wrap;html=1;fillColor=#d5e8d4;strokeColor=#82b366;" parent="1" vertex="1">
          <mxGeometry x="524.39" y="2810" width="126.26" height="60" as="geometry" />
        </mxCell>
        <mxCell id="xBpnV0RaYjXp5-zyp5ir-123" value="NÃ£o" style="rounded=1;whiteSpace=wrap;html=1;fillColor=#f8cecc;strokeColor=#b85450;" parent="1" vertex="1">
          <mxGeometry x="733.74" y="2810" width="126.26" height="60" as="geometry" />
        </mxCell>
        <mxCell id="xBpnV0RaYjXp5-zyp5ir-159" value="" style="group" parent="1" vertex="1" connectable="0">
          <mxGeometry x="460" y="1690.0038028169015" width="396.1672098218035" height="50" as="geometry" />
        </mxCell>
        <mxCell id="xBpnV0RaYjXp5-zyp5ir-160" value="Nome do Fornecedor" style="text;html=1;align=center;verticalAlign=middle;whiteSpace=wrap;rounded=0;" parent="xBpnV0RaYjXp5-zyp5ir-159" vertex="1">
          <mxGeometry x="57.54865806754998" y="7.253521126760575" width="118.23785290808014" height="35.49295774647888" as="geometry" />
        </mxCell>
        <mxCell id="xBpnV0RaYjXp5-zyp5ir-161" value="" style="ellipse;whiteSpace=wrap;html=1;aspect=fixed;" parent="xBpnV0RaYjXp5-zyp5ir-159" vertex="1">
          <mxGeometry width="50" height="50" as="geometry" />
        </mxCell>
        <mxCell id="xBpnV0RaYjXp5-zyp5ir-162" value="" style="shape=actor;whiteSpace=wrap;html=1;" parent="xBpnV0RaYjXp5-zyp5ir-159" vertex="1">
          <mxGeometry x="10" y="5" width="30" height="40" as="geometry" />
        </mxCell>
        <mxCell id="xBpnV0RaYjXp5-zyp5ir-163" value="Entrar" style="rounded=1;whiteSpace=wrap;html=1;fillColor=#FFE8FF;strokeColor=#FFE8FF;fontColor=#262626;" parent="xBpnV0RaYjXp5-zyp5ir-159" vertex="1">
          <mxGeometry x="190.00259149157728" y="7.253521126760461" width="56.162980131338074" height="35.49295774647888" as="geometry" />
        </mxCell>
        <mxCell id="xBpnV0RaYjXp5-zyp5ir-164" value="Apagar?" style="rounded=1;whiteSpace=wrap;html=1;fillColor=#FFE8FF;strokeColor=#FFE8FF;fontColor=#262626;" parent="xBpnV0RaYjXp5-zyp5ir-159" vertex="1">
          <mxGeometry x="269.99543742967023" y="9.503521126760461" width="56.162980131338074" height="35.49295774647888" as="geometry" />
        </mxCell>
        <mxCell id="xBpnV0RaYjXp5-zyp5ir-165" value="Atualizar?" style="rounded=1;whiteSpace=wrap;html=1;fillColor=#FFE8FF;strokeColor=#FFE8FF;fontColor=#262626;" parent="xBpnV0RaYjXp5-zyp5ir-159" vertex="1">
          <mxGeometry x="340.0042296904654" y="9.503521126760461" width="56.162980131338074" height="35.49295774647888" as="geometry" />
        </mxCell>
        <mxCell id="xBpnV0RaYjXp5-zyp5ir-180" value="" style="group" parent="1" vertex="1" connectable="0">
          <mxGeometry x="460" y="1770.0038028169015" width="396.1672098218035" height="50" as="geometry" />
        </mxCell>
        <mxCell id="xBpnV0RaYjXp5-zyp5ir-181" value="Nome do Fornecedor" style="text;html=1;align=center;verticalAlign=middle;whiteSpace=wrap;rounded=0;" parent="xBpnV0RaYjXp5-zyp5ir-180" vertex="1">
          <mxGeometry x="57.54865806754998" y="7.253521126760575" width="118.23785290808014" height="35.49295774647888" as="geometry" />
        </mxCell>
        <mxCell id="xBpnV0RaYjXp5-zyp5ir-182" value="" style="ellipse;whiteSpace=wrap;html=1;aspect=fixed;" parent="xBpnV0RaYjXp5-zyp5ir-180" vertex="1">
          <mxGeometry width="50" height="50" as="geometry" />
        </mxCell>
        <mxCell id="xBpnV0RaYjXp5-zyp5ir-183" value="" style="shape=actor;whiteSpace=wrap;html=1;" parent="xBpnV0RaYjXp5-zyp5ir-180" vertex="1">
          <mxGeometry x="10" y="5" width="30" height="40" as="geometry" />
        </mxCell>
        <mxCell id="xBpnV0RaYjXp5-zyp5ir-184" value="Entrar" style="rounded=1;whiteSpace=wrap;html=1;fillColor=#FFE8FF;strokeColor=#FFE8FF;fontColor=#262626;" parent="xBpnV0RaYjXp5-zyp5ir-180" vertex="1">
          <mxGeometry x="190.00259149157728" y="7.253521126760461" width="56.162980131338074" height="35.49295774647888" as="geometry" />
        </mxCell>
        <mxCell id="xBpnV0RaYjXp5-zyp5ir-185" value="Apagar?" style="rounded=1;whiteSpace=wrap;html=1;fillColor=#FFE8FF;strokeColor=#FFE8FF;fontColor=#262626;" parent="xBpnV0RaYjXp5-zyp5ir-180" vertex="1">
          <mxGeometry x="269.99543742967023" y="9.503521126760461" width="56.162980131338074" height="35.49295774647888" as="geometry" />
        </mxCell>
        <mxCell id="xBpnV0RaYjXp5-zyp5ir-186" value="Atualizar?" style="rounded=1;whiteSpace=wrap;html=1;fillColor=#FFE8FF;strokeColor=#FFE8FF;fontColor=#262626;" parent="xBpnV0RaYjXp5-zyp5ir-180" vertex="1">
          <mxGeometry x="340.0042296904654" y="9.503521126760461" width="56.162980131338074" height="35.49295774647888" as="geometry" />
        </mxCell>
        <mxCell id="xBpnV0RaYjXp5-zyp5ir-187" value="" style="group" parent="1" vertex="1" connectable="0">
          <mxGeometry x="460" y="1850.0038028169015" width="396.1672098218035" height="50" as="geometry" />
        </mxCell>
        <mxCell id="xBpnV0RaYjXp5-zyp5ir-188" value="Nome do Fornecedor" style="text;html=1;align=center;verticalAlign=middle;whiteSpace=wrap;rounded=0;" parent="xBpnV0RaYjXp5-zyp5ir-187" vertex="1">
          <mxGeometry x="57.54865806754998" y="7.253521126760575" width="118.23785290808014" height="35.49295774647888" as="geometry" />
        </mxCell>
        <mxCell id="xBpnV0RaYjXp5-zyp5ir-189" value="" style="ellipse;whiteSpace=wrap;html=1;aspect=fixed;" parent="xBpnV0RaYjXp5-zyp5ir-187" vertex="1">
          <mxGeometry width="50" height="50" as="geometry" />
        </mxCell>
        <mxCell id="xBpnV0RaYjXp5-zyp5ir-190" value="" style="shape=actor;whiteSpace=wrap;html=1;" parent="xBpnV0RaYjXp5-zyp5ir-187" vertex="1">
          <mxGeometry x="10" y="5" width="30" height="40" as="geometry" />
        </mxCell>
        <mxCell id="xBpnV0RaYjXp5-zyp5ir-191" value="Entrar" style="rounded=1;whiteSpace=wrap;html=1;fillColor=#FFE8FF;strokeColor=#FFE8FF;fontColor=#262626;" parent="xBpnV0RaYjXp5-zyp5ir-187" vertex="1">
          <mxGeometry x="190.00259149157728" y="7.253521126760461" width="56.162980131338074" height="35.49295774647888" as="geometry" />
        </mxCell>
        <mxCell id="xBpnV0RaYjXp5-zyp5ir-192" value="Apagar?" style="rounded=1;whiteSpace=wrap;html=1;fillColor=#FFE8FF;strokeColor=#FFE8FF;fontColor=#262626;" parent="xBpnV0RaYjXp5-zyp5ir-187" vertex="1">
          <mxGeometry x="269.99543742967023" y="9.503521126760461" width="56.162980131338074" height="35.49295774647888" as="geometry" />
        </mxCell>
        <mxCell id="xBpnV0RaYjXp5-zyp5ir-193" value="Atualizar?" style="rounded=1;whiteSpace=wrap;html=1;fillColor=#FFE8FF;strokeColor=#FFE8FF;fontColor=#262626;" parent="xBpnV0RaYjXp5-zyp5ir-187" vertex="1">
          <mxGeometry x="340.0042296904654" y="9.503521126760461" width="56.162980131338074" height="35.49295774647888" as="geometry" />
        </mxCell>
        <mxCell id="xBpnV0RaYjXp5-zyp5ir-194" value="" style="group" parent="1" vertex="1" connectable="0">
          <mxGeometry x="460" y="1930.0038028169015" width="396.1672098218035" height="50" as="geometry" />
        </mxCell>
        <mxCell id="xBpnV0RaYjXp5-zyp5ir-195" value="Nome do Fornecedor" style="text;html=1;align=center;verticalAlign=middle;whiteSpace=wrap;rounded=0;" parent="xBpnV0RaYjXp5-zyp5ir-194" vertex="1">
          <mxGeometry x="57.54865806754998" y="7.253521126760575" width="118.23785290808014" height="35.49295774647888" as="geometry" />
        </mxCell>
        <mxCell id="xBpnV0RaYjXp5-zyp5ir-196" value="" style="ellipse;whiteSpace=wrap;html=1;aspect=fixed;" parent="xBpnV0RaYjXp5-zyp5ir-194" vertex="1">
          <mxGeometry width="50" height="50" as="geometry" />
        </mxCell>
        <mxCell id="xBpnV0RaYjXp5-zyp5ir-197" value="" style="shape=actor;whiteSpace=wrap;html=1;" parent="xBpnV0RaYjXp5-zyp5ir-194" vertex="1">
          <mxGeometry x="10" y="5" width="30" height="40" as="geometry" />
        </mxCell>
        <mxCell id="xBpnV0RaYjXp5-zyp5ir-198" value="Entrar" style="rounded=1;whiteSpace=wrap;html=1;fillColor=#FFE8FF;strokeColor=#FFE8FF;fontColor=#262626;" parent="xBpnV0RaYjXp5-zyp5ir-194" vertex="1">
          <mxGeometry x="190.00259149157728" y="7.253521126760461" width="56.162980131338074" height="35.49295774647888" as="geometry" />
        </mxCell>
        <mxCell id="xBpnV0RaYjXp5-zyp5ir-199" value="Apagar?" style="rounded=1;whiteSpace=wrap;html=1;fillColor=#FFE8FF;strokeColor=#FFE8FF;fontColor=#262626;" parent="xBpnV0RaYjXp5-zyp5ir-194" vertex="1">
          <mxGeometry x="269.99543742967023" y="9.503521126760461" width="56.162980131338074" height="35.49295774647888" as="geometry" />
        </mxCell>
        <mxCell id="xBpnV0RaYjXp5-zyp5ir-200" value="Atualizar?" style="rounded=1;whiteSpace=wrap;html=1;fillColor=#FFE8FF;strokeColor=#FFE8FF;fontColor=#262626;" parent="xBpnV0RaYjXp5-zyp5ir-194" vertex="1">
          <mxGeometry x="340.0042296904654" y="9.503521126760461" width="56.162980131338074" height="35.49295774647888" as="geometry" />
        </mxCell>
        <mxCell id="xBpnV0RaYjXp5-zyp5ir-201" value="" style="group" parent="1" vertex="1" connectable="0">
          <mxGeometry x="460" y="2020.0038028169015" width="396.1672098218035" height="50" as="geometry" />
        </mxCell>
        <mxCell id="xBpnV0RaYjXp5-zyp5ir-202" value="Nome do Fornecedor" style="text;html=1;align=center;verticalAlign=middle;whiteSpace=wrap;rounded=0;" parent="xBpnV0RaYjXp5-zyp5ir-201" vertex="1">
          <mxGeometry x="57.54865806754998" y="7.253521126760575" width="118.23785290808014" height="35.49295774647888" as="geometry" />
        </mxCell>
        <mxCell id="xBpnV0RaYjXp5-zyp5ir-203" value="" style="ellipse;whiteSpace=wrap;html=1;aspect=fixed;" parent="xBpnV0RaYjXp5-zyp5ir-201" vertex="1">
          <mxGeometry width="50" height="50" as="geometry" />
        </mxCell>
        <mxCell id="xBpnV0RaYjXp5-zyp5ir-204" value="" style="shape=actor;whiteSpace=wrap;html=1;" parent="xBpnV0RaYjXp5-zyp5ir-201" vertex="1">
          <mxGeometry x="10" y="5" width="30" height="40" as="geometry" />
        </mxCell>
        <mxCell id="xBpnV0RaYjXp5-zyp5ir-205" value="Entrar" style="rounded=1;whiteSpace=wrap;html=1;fillColor=#FFE8FF;strokeColor=#FFE8FF;fontColor=#262626;" parent="xBpnV0RaYjXp5-zyp5ir-201" vertex="1">
          <mxGeometry x="190.00259149157728" y="7.253521126760461" width="56.162980131338074" height="35.49295774647888" as="geometry" />
        </mxCell>
        <mxCell id="xBpnV0RaYjXp5-zyp5ir-206" value="Apagar?" style="rounded=1;whiteSpace=wrap;html=1;fillColor=#FFE8FF;strokeColor=#FFE8FF;fontColor=#262626;" parent="xBpnV0RaYjXp5-zyp5ir-201" vertex="1">
          <mxGeometry x="269.99543742967023" y="9.503521126760461" width="56.162980131338074" height="35.49295774647888" as="geometry" />
        </mxCell>
        <mxCell id="xBpnV0RaYjXp5-zyp5ir-207" value="Atualizar?" style="rounded=1;whiteSpace=wrap;html=1;fillColor=#FFE8FF;strokeColor=#FFE8FF;fontColor=#262626;" parent="xBpnV0RaYjXp5-zyp5ir-201" vertex="1">
          <mxGeometry x="340.0042296904654" y="9.503521126760461" width="56.162980131338074" height="35.49295774647888" as="geometry" />
        </mxCell>
        <mxCell id="Hi9N75Sx4M3K3PrrkHUg-1" value="" style="shape=ext;double=1;rounded=0;whiteSpace=wrap;html=1;fillColor=#FFBCAB;strokeColor=#FF9999;strokeWidth=6;" parent="1" vertex="1">
          <mxGeometry x="3308" y="-1090" width="2940" height="2360" as="geometry" />
        </mxCell>
        <mxCell id="Hi9N75Sx4M3K3PrrkHUg-2" value="" style="rounded=1;whiteSpace=wrap;html=1;" parent="1" vertex="1">
          <mxGeometry x="5588" y="-1040" width="490" height="1020" as="geometry" />
        </mxCell>
        <mxCell id="Hi9N75Sx4M3K3PrrkHUg-3" value="" style="rounded=1;whiteSpace=wrap;html=1;" parent="1" vertex="1">
          <mxGeometry x="4898" y="-1040" width="490" height="1020" as="geometry" />
        </mxCell>
        <mxCell id="Hi9N75Sx4M3K3PrrkHUg-15" value="" style="shape=image;verticalLabelPosition=bottom;labelBackgroundColor=default;verticalAlign=top;aspect=fixed;imageAspect=0;image=https://png.pngtree.com/png-clipart/20231005/original/pngtree-iphone-mockup-with-blank-screen-on-transparent-background-png-image_13279256.png;clipPath=inset(9.67% 28% 8% 27.67%);" parent="1" vertex="1">
          <mxGeometry x="4848" y="-1060" width="570.77" height="1060" as="geometry" />
        </mxCell>
        <mxCell id="Hi9N75Sx4M3K3PrrkHUg-16" value="&lt;font style=&quot;font-size: 36px;&quot;&gt;PÃ¡gina de cadastro&lt;/font&gt;" style="text;html=1;align=center;verticalAlign=middle;whiteSpace=wrap;rounded=0;" parent="1" vertex="1">
          <mxGeometry x="4958.389999999999" y="-947.9000000000001" width="350" height="30" as="geometry" />
        </mxCell>
        <mxCell id="Hi9N75Sx4M3K3PrrkHUg-17" value="&lt;font style=&quot;font-size: 18px;&quot;&gt;Nome da Transportadora&lt;/font&gt;" style="text;html=1;align=center;verticalAlign=middle;whiteSpace=wrap;rounded=0;" parent="1" vertex="1">
          <mxGeometry x="4928" y="-870" width="120" height="30" as="geometry" />
        </mxCell>
        <mxCell id="Hi9N75Sx4M3K3PrrkHUg-18" value="" style="rounded=1;whiteSpace=wrap;html=1;fillColor=#FF9999;strokeColor=#FF9999;" parent="1" vertex="1">
          <mxGeometry x="4918" y="-830" width="420" height="50" as="geometry" />
        </mxCell>
        <mxCell id="Hi9N75Sx4M3K3PrrkHUg-19" value="&lt;font style=&quot;font-size: 18px;&quot;&gt;E-mail&lt;/font&gt;" style="text;html=1;align=center;verticalAlign=middle;whiteSpace=wrap;rounded=0;" parent="1" vertex="1">
          <mxGeometry x="4918" y="-750" width="120" height="30" as="geometry" />
        </mxCell>
        <mxCell id="Hi9N75Sx4M3K3PrrkHUg-20" value="&lt;font style=&quot;font-size: 18px;&quot;&gt;Telefone&lt;/font&gt;" style="text;html=1;align=center;verticalAlign=middle;whiteSpace=wrap;rounded=0;" parent="1" vertex="1">
          <mxGeometry x="4908" y="-620" width="120" height="30" as="geometry" />
        </mxCell>
        <mxCell id="Hi9N75Sx4M3K3PrrkHUg-22" value="Ir" style="rounded=1;whiteSpace=wrap;html=1;fillColor=#FF9999;strokeColor=#FF968F;" parent="1" vertex="1">
          <mxGeometry x="5248" y="-110" width="90" height="30" as="geometry" />
        </mxCell>
        <mxCell id="Hi9N75Sx4M3K3PrrkHUg-23" value="" style="rounded=1;whiteSpace=wrap;html=1;fillColor=#FF9999;strokeColor=#FF9999;" parent="1" vertex="1">
          <mxGeometry x="4918" y="-710" width="420" height="50" as="geometry" />
        </mxCell>
        <mxCell id="Hi9N75Sx4M3K3PrrkHUg-24" value="" style="rounded=1;whiteSpace=wrap;html=1;fillColor=#FF9999;strokeColor=#FF9999;" parent="1" vertex="1">
          <mxGeometry x="4918" y="-580" width="420" height="50" as="geometry" />
        </mxCell>
        <mxCell id="Hi9N75Sx4M3K3PrrkHUg-26" value="" style="shape=image;verticalLabelPosition=bottom;labelBackgroundColor=default;verticalAlign=top;aspect=fixed;imageAspect=0;image=https://png.pngtree.com/png-clipart/20231005/original/pngtree-iphone-mockup-with-blank-screen-on-transparent-background-png-image_13279256.png;clipPath=inset(9.67% 28% 8% 27.67%);" parent="1" vertex="1">
          <mxGeometry x="5538" y="-1060" width="570.77" height="1060" as="geometry" />
        </mxCell>
        <mxCell id="Hi9N75Sx4M3K3PrrkHUg-27" value="&lt;font style=&quot;font-size: 36px;&quot;&gt;Cadastro Realizado!&lt;/font&gt;" style="text;html=1;align=center;verticalAlign=middle;whiteSpace=wrap;rounded=0;" parent="1" vertex="1">
          <mxGeometry x="5618.89" y="-570" width="409" height="30" as="geometry" />
        </mxCell>
        <mxCell id="Hi9N75Sx4M3K3PrrkHUg-28" value="&lt;font style=&quot;font-size: 72px;&quot;&gt;Transportadora&lt;/font&gt;" style="text;html=1;align=center;verticalAlign=middle;whiteSpace=wrap;rounded=0;" parent="1" vertex="1">
          <mxGeometry x="4323" y="1120" width="930" height="110" as="geometry" />
        </mxCell>
        <mxCell id="Hi9N75Sx4M3K3PrrkHUg-29" value="" style="rounded=1;whiteSpace=wrap;html=1;" parent="1" vertex="1">
          <mxGeometry x="3532.39" y="110" width="490" height="340" as="geometry" />
        </mxCell>
        <mxCell id="Hi9N75Sx4M3K3PrrkHUg-31" value="Apagar?" style="rounded=1;whiteSpace=wrap;html=1;fillColor=#FF7878;strokeColor=#FF968F;" parent="1" vertex="1">
          <mxGeometry x="3378" y="120" width="126.26" height="60" as="geometry" />
        </mxCell>
        <mxCell id="Hi9N75Sx4M3K3PrrkHUg-32" value="Atualizar" style="rounded=1;whiteSpace=wrap;html=1;fillColor=#FF7878;strokeColor=#FF968F;" parent="1" vertex="1">
          <mxGeometry x="4971.74" y="120" width="126.26" height="60" as="geometry" />
        </mxCell>
        <mxCell id="Hi9N75Sx4M3K3PrrkHUg-34" value="" style="group" parent="1" vertex="1" connectable="0">
          <mxGeometry x="4128" y="-1060" width="570.77" height="1060" as="geometry" />
        </mxCell>
        <mxCell id="Hi9N75Sx4M3K3PrrkHUg-35" value="" style="rounded=1;whiteSpace=wrap;html=1;" parent="Hi9N75Sx4M3K3PrrkHUg-34" vertex="1">
          <mxGeometry x="40" y="20" width="490" height="1020" as="geometry" />
        </mxCell>
        <mxCell id="Hi9N75Sx4M3K3PrrkHUg-36" value="" style="shape=image;verticalLabelPosition=bottom;labelBackgroundColor=default;verticalAlign=top;aspect=fixed;imageAspect=0;image=https://png.pngtree.com/png-clipart/20231005/original/pngtree-iphone-mockup-with-blank-screen-on-transparent-background-png-image_13279256.png;clipPath=inset(9.67% 28% 8% 27.67%);" parent="Hi9N75Sx4M3K3PrrkHUg-34" vertex="1">
          <mxGeometry width="570.77" height="1060" as="geometry" />
        </mxCell>
        <mxCell id="Hi9N75Sx4M3K3PrrkHUg-37" value="Procurar Transportadora" style="rounded=1;whiteSpace=wrap;html=1;" parent="Hi9N75Sx4M3K3PrrkHUg-34" vertex="1">
          <mxGeometry x="70" y="101.04999999999995" width="391.66" height="40" as="geometry" />
        </mxCell>
        <mxCell id="Hi9N75Sx4M3K3PrrkHUg-38" value="" style="shape=image;html=1;verticalLabelPosition=bottom;verticalAlign=top;imageAspect=1;aspect=fixed;image=https://images.vexels.com/media/users/3/204845/isolated/lists/31084e04c65187ba8d1ecb9880f5d29f-design-de-icone-de-traco-de-lupa.png;" parent="Hi9N75Sx4M3K3PrrkHUg-34" vertex="1">
          <mxGeometry x="470.0027535647705" y="100" width="35.88519945349693" height="42.095974814605675" as="geometry" />
        </mxCell>
        <mxCell id="Hi9N75Sx4M3K3PrrkHUg-39" value="&lt;font style=&quot;font-size: 18px;&quot;&gt;NÃ£o encontrado&amp;nbsp;&lt;/font&gt;" style="text;html=1;align=center;verticalAlign=middle;whiteSpace=wrap;rounded=0;" parent="Hi9N75Sx4M3K3PrrkHUg-34" vertex="1">
          <mxGeometry x="175.38999999999987" y="180" width="220" height="30" as="geometry" />
        </mxCell>
        <mxCell id="Hi9N75Sx4M3K3PrrkHUg-40" value="&lt;font style=&quot;font-size: 18px;&quot;&gt;Fazer Cadastro&lt;/font&gt;" style="rounded=1;whiteSpace=wrap;html=1;fillColor=#FF968F;strokeColor=#FF9999;" parent="Hi9N75Sx4M3K3PrrkHUg-34" vertex="1">
          <mxGeometry x="225.38999999999987" y="220" width="120" height="60" as="geometry" />
        </mxCell>
        <mxCell id="Hi9N75Sx4M3K3PrrkHUg-41" value="" style="rounded=1;whiteSpace=wrap;html=1;" parent="1" vertex="1">
          <mxGeometry x="5148" y="60" width="490" height="1020" as="geometry" />
        </mxCell>
        <mxCell id="Hi9N75Sx4M3K3PrrkHUg-42" value="" style="shape=image;verticalLabelPosition=bottom;labelBackgroundColor=default;verticalAlign=top;aspect=fixed;imageAspect=0;image=https://png.pngtree.com/png-clipart/20231005/original/pngtree-iphone-mockup-with-blank-screen-on-transparent-background-png-image_13279256.png;clipPath=inset(9.67% 28% 8% 27.67%);" parent="1" vertex="1">
          <mxGeometry x="5098" y="40" width="570.77" height="1060" as="geometry" />
        </mxCell>
        <mxCell id="Hi9N75Sx4M3K3PrrkHUg-43" value="&lt;font style=&quot;font-size: 36px;&quot;&gt;PÃ¡gina de cadastro&lt;/font&gt;" style="text;html=1;align=center;verticalAlign=middle;whiteSpace=wrap;rounded=0;" parent="1" vertex="1">
          <mxGeometry x="5208.389999999999" y="152.0999999999999" width="350" height="30" as="geometry" />
        </mxCell>
        <mxCell id="Hi9N75Sx4M3K3PrrkHUg-44" value="Nome da transportadora" style="text;html=1;align=center;verticalAlign=middle;whiteSpace=wrap;rounded=0;" parent="1" vertex="1">
          <mxGeometry x="5168" y="230" width="120" height="30" as="geometry" />
        </mxCell>
        <mxCell id="Hi9N75Sx4M3K3PrrkHUg-45" value="" style="rounded=1;whiteSpace=wrap;html=1;fillColor=#FF968F;strokeColor=#FFE8FF;" parent="1" vertex="1">
          <mxGeometry x="5168" y="260" width="420" height="50" as="geometry" />
        </mxCell>
        <mxCell id="Hi9N75Sx4M3K3PrrkHUg-46" value="E-mail" style="text;html=1;align=center;verticalAlign=middle;whiteSpace=wrap;rounded=0;fillColor=#FFFFFF;strokeColor=#FFFFFF;" parent="1" vertex="1">
          <mxGeometry x="5168" y="350" width="120" height="30" as="geometry" />
        </mxCell>
        <mxCell id="Hi9N75Sx4M3K3PrrkHUg-47" value="Telefone" style="text;html=1;align=center;verticalAlign=middle;whiteSpace=wrap;rounded=0;fillColor=#FFFFFF;strokeColor=#FFFFFF;" parent="1" vertex="1">
          <mxGeometry x="5158" y="480" width="120" height="30" as="geometry" />
        </mxCell>
        <mxCell id="Hi9N75Sx4M3K3PrrkHUg-49" value="Ir" style="rounded=1;whiteSpace=wrap;html=1;fillColor=#FF9999;strokeColor=#FFE8FF;" parent="1" vertex="1">
          <mxGeometry x="5498" y="990" width="90" height="30" as="geometry" />
        </mxCell>
        <mxCell id="Hi9N75Sx4M3K3PrrkHUg-50" value="" style="rounded=1;whiteSpace=wrap;html=1;fillColor=#FF968F;strokeColor=#FFE8FF;" parent="1" vertex="1">
          <mxGeometry x="5168" y="390" width="420" height="50" as="geometry" />
        </mxCell>
        <mxCell id="Hi9N75Sx4M3K3PrrkHUg-51" value="" style="rounded=1;whiteSpace=wrap;html=1;fillColor=#FF968F;strokeColor=#FFE8FF;" parent="1" vertex="1">
          <mxGeometry x="5173.39" y="520" width="420" height="50" as="geometry" />
        </mxCell>
        <mxCell id="Hi9N75Sx4M3K3PrrkHUg-53" value="" style="rounded=1;whiteSpace=wrap;html=1;" parent="1" vertex="1">
          <mxGeometry x="4328" y="75" width="490" height="1020" as="geometry" />
        </mxCell>
        <mxCell id="Hi9N75Sx4M3K3PrrkHUg-54" value="" style="shape=image;verticalLabelPosition=bottom;labelBackgroundColor=default;verticalAlign=top;aspect=fixed;imageAspect=0;image=https://png.pngtree.com/png-clipart/20231005/original/pngtree-iphone-mockup-with-blank-screen-on-transparent-background-png-image_13279256.png;clipPath=inset(9.67% 28% 8% 27.67%);" parent="1" vertex="1">
          <mxGeometry x="4288" y="55" width="570.77" height="1060" as="geometry" />
        </mxCell>
        <mxCell id="Hi9N75Sx4M3K3PrrkHUg-55" value="&lt;font style=&quot;font-size: 36px;&quot;&gt;Dados da transportadora&lt;/font&gt;" style="text;html=1;align=center;verticalAlign=middle;whiteSpace=wrap;rounded=0;" parent="1" vertex="1">
          <mxGeometry x="4398.39" y="180" width="350" height="30" as="geometry" />
        </mxCell>
        <mxCell id="Hi9N75Sx4M3K3PrrkHUg-56" value="Nome de usuÃ¡rio:" style="text;html=1;align=center;verticalAlign=middle;whiteSpace=wrap;rounded=0;" parent="1" vertex="1">
          <mxGeometry x="4358" y="303.9499999999998" width="120" height="30" as="geometry" />
        </mxCell>
        <mxCell id="Hi9N75Sx4M3K3PrrkHUg-57" value="" style="rounded=1;whiteSpace=wrap;html=1;fillColor=#FF968F;strokeColor=#FFE8FF;" parent="1" vertex="1">
          <mxGeometry x="4358" y="333.9499999999998" width="420" height="50" as="geometry" />
        </mxCell>
        <mxCell id="Hi9N75Sx4M3K3PrrkHUg-58" value="E-mail" style="text;html=1;align=center;verticalAlign=middle;whiteSpace=wrap;rounded=0;fillColor=#FFFFFF;strokeColor=#FFFFFF;" parent="1" vertex="1">
          <mxGeometry x="4358" y="423.9499999999998" width="120" height="30" as="geometry" />
        </mxCell>
        <mxCell id="Hi9N75Sx4M3K3PrrkHUg-59" value="Telefone" style="text;html=1;align=center;verticalAlign=middle;whiteSpace=wrap;rounded=0;fillColor=#FFFFFF;strokeColor=#FFFFFF;" parent="1" vertex="1">
          <mxGeometry x="4348" y="553.9499999999998" width="120" height="30" as="geometry" />
        </mxCell>
        <mxCell id="Hi9N75Sx4M3K3PrrkHUg-61" value="" style="rounded=1;whiteSpace=wrap;html=1;fillColor=#FF968F;strokeColor=#FFE8FF;" parent="1" vertex="1">
          <mxGeometry x="4358" y="463.9499999999998" width="420" height="50" as="geometry" />
        </mxCell>
        <mxCell id="Hi9N75Sx4M3K3PrrkHUg-62" value="" style="rounded=1;whiteSpace=wrap;html=1;fillColor=#FF968F;strokeColor=#FFE8FF;" parent="1" vertex="1">
          <mxGeometry x="4358" y="593.9499999999998" width="420" height="50" as="geometry" />
        </mxCell>
        <mxCell id="Hi9N75Sx4M3K3PrrkHUg-64" value="&lt;font style=&quot;font-size: 36px;&quot;&gt;VocÃª deseja apagar essa transportadora?&lt;/font&gt;" style="text;html=1;align=center;verticalAlign=middle;whiteSpace=wrap;rounded=0;" parent="1" vertex="1">
          <mxGeometry x="3602.39" y="160" width="350" height="110" as="geometry" />
        </mxCell>
        <mxCell id="Hi9N75Sx4M3K3PrrkHUg-65" value="Sim" style="rounded=1;whiteSpace=wrap;html=1;fillColor=#d5e8d4;strokeColor=#82b366;" parent="1" vertex="1">
          <mxGeometry x="3602.39" y="310" width="126.26" height="60" as="geometry" />
        </mxCell>
        <mxCell id="Hi9N75Sx4M3K3PrrkHUg-66" value="NÃ£o" style="rounded=1;whiteSpace=wrap;html=1;fillColor=#f8cecc;strokeColor=#b85450;" parent="1" vertex="1">
          <mxGeometry x="3811.74" y="310" width="126.26" height="60" as="geometry" />
        </mxCell>
        <mxCell id="Hi9N75Sx4M3K3PrrkHUg-107" value="" style="group" parent="1" vertex="1" connectable="0">
          <mxGeometry x="3436" y="-1050" width="570.77" height="1060" as="geometry" />
        </mxCell>
        <mxCell id="Hi9N75Sx4M3K3PrrkHUg-108" value="" style="rounded=1;whiteSpace=wrap;html=1;" parent="Hi9N75Sx4M3K3PrrkHUg-107" vertex="1">
          <mxGeometry x="40" y="20" width="490" height="1020" as="geometry" />
        </mxCell>
        <mxCell id="Hi9N75Sx4M3K3PrrkHUg-109" value="" style="shape=image;verticalLabelPosition=bottom;labelBackgroundColor=default;verticalAlign=top;aspect=fixed;imageAspect=0;image=https://png.pngtree.com/png-clipart/20231005/original/pngtree-iphone-mockup-with-blank-screen-on-transparent-background-png-image_13279256.png;clipPath=inset(9.67% 28% 8% 27.67%);" parent="Hi9N75Sx4M3K3PrrkHUg-107" vertex="1">
          <mxGeometry width="570.77" height="1060" as="geometry" />
        </mxCell>
        <mxCell id="Hi9N75Sx4M3K3PrrkHUg-110" value="Procurar Transportadora" style="rounded=1;whiteSpace=wrap;html=1;" parent="Hi9N75Sx4M3K3PrrkHUg-107" vertex="1">
          <mxGeometry x="70" y="101.04999999999995" width="391.66" height="40" as="geometry" />
        </mxCell>
        <mxCell id="Hi9N75Sx4M3K3PrrkHUg-111" value="" style="shape=image;html=1;verticalLabelPosition=bottom;verticalAlign=top;imageAspect=1;aspect=fixed;image=https://images.vexels.com/media/users/3/204845/isolated/lists/31084e04c65187ba8d1ecb9880f5d29f-design-de-icone-de-traco-de-lupa.png;" parent="Hi9N75Sx4M3K3PrrkHUg-107" vertex="1">
          <mxGeometry x="470.0027535647705" y="100" width="35.88519945349693" height="42.095974814605675" as="geometry" />
        </mxCell>
        <mxCell id="Hi9N75Sx4M3K3PrrkHUg-115" value="" style="group" parent="Hi9N75Sx4M3K3PrrkHUg-107" vertex="1" connectable="0">
          <mxGeometry x="74" y="180.00380281690155" width="383.6372098218035" height="50" as="geometry" />
        </mxCell>
        <mxCell id="Hi9N75Sx4M3K3PrrkHUg-116" value="Nome da transportadora" style="text;html=1;align=center;verticalAlign=middle;whiteSpace=wrap;rounded=0;" parent="Hi9N75Sx4M3K3PrrkHUg-115" vertex="1">
          <mxGeometry x="57.54865806754998" y="7.253521126760575" width="118.23785290808014" height="35.49295774647888" as="geometry" />
        </mxCell>
        <mxCell id="Hi9N75Sx4M3K3PrrkHUg-117" value="" style="ellipse;whiteSpace=wrap;html=1;aspect=fixed;" parent="Hi9N75Sx4M3K3PrrkHUg-115" vertex="1">
          <mxGeometry width="50" height="50" as="geometry" />
        </mxCell>
        <mxCell id="Hi9N75Sx4M3K3PrrkHUg-118" value="" style="shape=actor;whiteSpace=wrap;html=1;" parent="Hi9N75Sx4M3K3PrrkHUg-115" vertex="1">
          <mxGeometry x="10" y="5" width="30" height="40" as="geometry" />
        </mxCell>
        <mxCell id="Hi9N75Sx4M3K3PrrkHUg-119" value="" style="group" parent="Hi9N75Sx4M3K3PrrkHUg-115" vertex="1" connectable="0">
          <mxGeometry x="179.28259149157725" y="7.253521126760575" width="204.3546183302263" height="35.492957746478865" as="geometry" />
        </mxCell>
        <mxCell id="Hi9N75Sx4M3K3PrrkHUg-120" value="Atualizar?" style="rounded=1;whiteSpace=wrap;html=1;fillColor=#FF968F;strokeColor=#FF9999;" parent="Hi9N75Sx4M3K3PrrkHUg-119" vertex="1">
          <mxGeometry x="148.1916381988882" y="-1.4210854715202004e-14" width="56.162980131338074" height="35.49295774647888" as="geometry" />
        </mxCell>
        <mxCell id="Hi9N75Sx4M3K3PrrkHUg-121" value="Apagar?" style="rounded=1;whiteSpace=wrap;html=1;fillColor=#FF968F;strokeColor=#FF9999;" parent="Hi9N75Sx4M3K3PrrkHUg-119" vertex="1">
          <mxGeometry x="72.27284593809304" y="-1.4210854715202004e-14" width="56.162980131338074" height="35.49295774647888" as="geometry" />
        </mxCell>
        <mxCell id="Hi9N75Sx4M3K3PrrkHUg-122" value="Entrar" style="rounded=1;whiteSpace=wrap;html=1;fillColor=#FF968F;strokeColor=#FF9999;" parent="Hi9N75Sx4M3K3PrrkHUg-119" vertex="1">
          <mxGeometry y="-1.4210854715202004e-14" width="56.162980131338074" height="35.49295774647888" as="geometry" />
        </mxCell>
        <mxCell id="Hi9N75Sx4M3K3PrrkHUg-131" value="" style="group" parent="Hi9N75Sx4M3K3PrrkHUg-107" vertex="1" connectable="0">
          <mxGeometry x="74" y="260.0038028169015" width="383.6372098218035" height="50" as="geometry" />
        </mxCell>
        <mxCell id="Hi9N75Sx4M3K3PrrkHUg-132" value="Nome da transportadora" style="text;html=1;align=center;verticalAlign=middle;whiteSpace=wrap;rounded=0;" parent="Hi9N75Sx4M3K3PrrkHUg-131" vertex="1">
          <mxGeometry x="57.54865806754998" y="7.253521126760575" width="118.23785290808014" height="35.49295774647888" as="geometry" />
        </mxCell>
        <mxCell id="Hi9N75Sx4M3K3PrrkHUg-133" value="" style="ellipse;whiteSpace=wrap;html=1;aspect=fixed;" parent="Hi9N75Sx4M3K3PrrkHUg-131" vertex="1">
          <mxGeometry width="50" height="50" as="geometry" />
        </mxCell>
        <mxCell id="Hi9N75Sx4M3K3PrrkHUg-134" value="" style="shape=actor;whiteSpace=wrap;html=1;" parent="Hi9N75Sx4M3K3PrrkHUg-131" vertex="1">
          <mxGeometry x="10" y="5" width="30" height="40" as="geometry" />
        </mxCell>
        <mxCell id="Hi9N75Sx4M3K3PrrkHUg-135" value="" style="group" parent="Hi9N75Sx4M3K3PrrkHUg-131" vertex="1" connectable="0">
          <mxGeometry x="179.28259149157725" y="7.253521126760575" width="204.3546183302263" height="35.492957746478865" as="geometry" />
        </mxCell>
        <mxCell id="Hi9N75Sx4M3K3PrrkHUg-136" value="Atualizar?" style="rounded=1;whiteSpace=wrap;html=1;fillColor=#FF968F;strokeColor=#FF9999;" parent="Hi9N75Sx4M3K3PrrkHUg-135" vertex="1">
          <mxGeometry x="148.1916381988882" y="-1.4210854715202004e-14" width="56.162980131338074" height="35.49295774647888" as="geometry" />
        </mxCell>
        <mxCell id="Hi9N75Sx4M3K3PrrkHUg-137" value="Apagar?" style="rounded=1;whiteSpace=wrap;html=1;fillColor=#FF968F;strokeColor=#FF9999;" parent="Hi9N75Sx4M3K3PrrkHUg-135" vertex="1">
          <mxGeometry x="72.27284593809304" y="-1.4210854715202004e-14" width="56.162980131338074" height="35.49295774647888" as="geometry" />
        </mxCell>
        <mxCell id="Hi9N75Sx4M3K3PrrkHUg-138" value="Entrar" style="rounded=1;whiteSpace=wrap;html=1;fillColor=#FF968F;strokeColor=#FF9999;" parent="Hi9N75Sx4M3K3PrrkHUg-135" vertex="1">
          <mxGeometry y="-1.4210854715202004e-14" width="56.162980131338074" height="35.49295774647888" as="geometry" />
        </mxCell>
        <mxCell id="Hi9N75Sx4M3K3PrrkHUg-141" value="" style="shape=ext;double=1;rounded=0;whiteSpace=wrap;html=1;fillColor=#FFB73B;strokeColor=#FFC336;strokeWidth=6;" parent="1" vertex="1">
          <mxGeometry x="3308" y="1420" width="2940" height="2360" as="geometry" />
        </mxCell>
        <mxCell id="Hi9N75Sx4M3K3PrrkHUg-142" value="" style="rounded=1;whiteSpace=wrap;html=1;" parent="1" vertex="1">
          <mxGeometry x="5588" y="1470" width="490" height="1020" as="geometry" />
        </mxCell>
        <mxCell id="Hi9N75Sx4M3K3PrrkHUg-143" value="" style="rounded=1;whiteSpace=wrap;html=1;" parent="1" vertex="1">
          <mxGeometry x="4898" y="1470" width="490" height="1020" as="geometry" />
        </mxCell>
        <mxCell id="Hi9N75Sx4M3K3PrrkHUg-144" value="" style="shape=image;verticalLabelPosition=bottom;labelBackgroundColor=default;verticalAlign=top;aspect=fixed;imageAspect=0;image=https://png.pngtree.com/png-clipart/20231005/original/pngtree-iphone-mockup-with-blank-screen-on-transparent-background-png-image_13279256.png;clipPath=inset(9.67% 28% 8% 27.67%);" parent="1" vertex="1">
          <mxGeometry x="4848" y="1450" width="570.77" height="1060" as="geometry" />
        </mxCell>
        <mxCell id="Hi9N75Sx4M3K3PrrkHUg-145" value="&lt;font style=&quot;font-size: 36px;&quot;&gt;PÃ¡gina de cadastro&lt;/font&gt;" style="text;html=1;align=center;verticalAlign=middle;whiteSpace=wrap;rounded=0;" parent="1" vertex="1">
          <mxGeometry x="4958.389999999999" y="1562.1" width="350" height="30" as="geometry" />
        </mxCell>
        <mxCell id="Hi9N75Sx4M3K3PrrkHUg-146" value="Nome do FuncionÃ¡rio" style="text;html=1;align=center;verticalAlign=middle;whiteSpace=wrap;rounded=0;" parent="1" vertex="1">
          <mxGeometry x="4928" y="1640" width="120" height="30" as="geometry" />
        </mxCell>
        <mxCell id="Hi9N75Sx4M3K3PrrkHUg-147" value="" style="rounded=1;whiteSpace=wrap;html=1;fillColor=#FFC552;strokeColor=#FF9999;" parent="1" vertex="1">
          <mxGeometry x="4918" y="1670" width="420" height="50" as="geometry" />
        </mxCell>
        <mxCell id="Hi9N75Sx4M3K3PrrkHUg-148" value="E-mail" style="text;html=1;align=center;verticalAlign=middle;whiteSpace=wrap;rounded=0;" parent="1" vertex="1">
          <mxGeometry x="4918" y="1760" width="120" height="30" as="geometry" />
        </mxCell>
        <mxCell id="Hi9N75Sx4M3K3PrrkHUg-149" value="Telefone" style="text;html=1;align=center;verticalAlign=middle;whiteSpace=wrap;rounded=0;" parent="1" vertex="1">
          <mxGeometry x="4908" y="1890" width="120" height="30" as="geometry" />
        </mxCell>
        <mxCell id="Hi9N75Sx4M3K3PrrkHUg-150" value="Ir" style="rounded=1;whiteSpace=wrap;html=1;fillColor=#FFC336;strokeColor=#FF968F;" parent="1" vertex="1">
          <mxGeometry x="5248" y="2400" width="90" height="30" as="geometry" />
        </mxCell>
        <mxCell id="Hi9N75Sx4M3K3PrrkHUg-151" value="" style="rounded=1;whiteSpace=wrap;html=1;fillColor=#FFC336;strokeColor=#FF9999;" parent="1" vertex="1">
          <mxGeometry x="4918" y="1800" width="420" height="50" as="geometry" />
        </mxCell>
        <mxCell id="Hi9N75Sx4M3K3PrrkHUg-152" value="" style="rounded=1;whiteSpace=wrap;html=1;fillColor=#FFC336;strokeColor=#FF9999;" parent="1" vertex="1">
          <mxGeometry x="4918" y="1930" width="420" height="50" as="geometry" />
        </mxCell>
        <mxCell id="Hi9N75Sx4M3K3PrrkHUg-153" value="" style="shape=image;verticalLabelPosition=bottom;labelBackgroundColor=default;verticalAlign=top;aspect=fixed;imageAspect=0;image=https://png.pngtree.com/png-clipart/20231005/original/pngtree-iphone-mockup-with-blank-screen-on-transparent-background-png-image_13279256.png;clipPath=inset(9.67% 28% 8% 27.67%);" parent="1" vertex="1">
          <mxGeometry x="5538" y="1450" width="570.77" height="1060" as="geometry" />
        </mxCell>
        <mxCell id="Hi9N75Sx4M3K3PrrkHUg-154" value="&lt;font style=&quot;font-size: 36px;&quot;&gt;Cadastro Realizado!&lt;/font&gt;" style="text;html=1;align=center;verticalAlign=middle;whiteSpace=wrap;rounded=0;" parent="1" vertex="1">
          <mxGeometry x="5618.89" y="1940" width="409" height="30" as="geometry" />
        </mxCell>
        <mxCell id="Hi9N75Sx4M3K3PrrkHUg-155" value="&lt;font style=&quot;font-size: 72px;&quot;&gt;FuncionÃ¡rio&lt;/font&gt;" style="text;html=1;align=center;verticalAlign=middle;whiteSpace=wrap;rounded=0;" parent="1" vertex="1">
          <mxGeometry x="4323" y="3630" width="930" height="110" as="geometry" />
        </mxCell>
        <mxCell id="Hi9N75Sx4M3K3PrrkHUg-156" value="" style="rounded=1;whiteSpace=wrap;html=1;" parent="1" vertex="1">
          <mxGeometry x="3532.3900000000003" y="2570" width="490" height="1020" as="geometry" />
        </mxCell>
        <mxCell id="Hi9N75Sx4M3K3PrrkHUg-157" value="" style="shape=image;verticalLabelPosition=bottom;labelBackgroundColor=default;verticalAlign=top;aspect=fixed;imageAspect=0;image=https://png.pngtree.com/png-clipart/20231005/original/pngtree-iphone-mockup-with-blank-screen-on-transparent-background-png-image_13279256.png;clipPath=inset(9.67% 28% 8% 27.67%);" parent="1" vertex="1">
          <mxGeometry x="3492" y="2550" width="570.77" height="1060" as="geometry" />
        </mxCell>
        <mxCell id="Hi9N75Sx4M3K3PrrkHUg-158" value="Apagar?" style="rounded=1;whiteSpace=wrap;html=1;fillColor=#FFE270;strokeColor=#FF968F;" parent="1" vertex="1">
          <mxGeometry x="3378" y="2630" width="126.26" height="60" as="geometry" />
        </mxCell>
        <mxCell id="Hi9N75Sx4M3K3PrrkHUg-159" value="Atualizar" style="rounded=1;whiteSpace=wrap;html=1;fillColor=#FFE270;strokeColor=#FF968F;" parent="1" vertex="1">
          <mxGeometry x="4971.74" y="2630" width="126.26" height="60" as="geometry" />
        </mxCell>
        <mxCell id="Hi9N75Sx4M3K3PrrkHUg-160" value="Entrar" style="rounded=1;whiteSpace=wrap;html=1;fillColor=#FFE270;strokeColor=#FF968F;" parent="1" vertex="1">
          <mxGeometry x="4158" y="2630" width="126.26" height="60" as="geometry" />
        </mxCell>
        <mxCell id="Hi9N75Sx4M3K3PrrkHUg-161" value="" style="group" parent="1" vertex="1" connectable="0">
          <mxGeometry x="4128" y="1450" width="570.77" height="1060" as="geometry" />
        </mxCell>
        <mxCell id="Hi9N75Sx4M3K3PrrkHUg-162" value="" style="rounded=1;whiteSpace=wrap;html=1;" parent="Hi9N75Sx4M3K3PrrkHUg-161" vertex="1">
          <mxGeometry x="40" y="20" width="490" height="1020" as="geometry" />
        </mxCell>
        <mxCell id="Hi9N75Sx4M3K3PrrkHUg-163" value="" style="shape=image;verticalLabelPosition=bottom;labelBackgroundColor=default;verticalAlign=top;aspect=fixed;imageAspect=0;image=https://png.pngtree.com/png-clipart/20231005/original/pngtree-iphone-mockup-with-blank-screen-on-transparent-background-png-image_13279256.png;clipPath=inset(9.67% 28% 8% 27.67%);" parent="Hi9N75Sx4M3K3PrrkHUg-161" vertex="1">
          <mxGeometry width="570.77" height="1060" as="geometry" />
        </mxCell>
        <mxCell id="Hi9N75Sx4M3K3PrrkHUg-164" value="Procurar FuncionÃ¡rio" style="rounded=1;whiteSpace=wrap;html=1;" parent="Hi9N75Sx4M3K3PrrkHUg-161" vertex="1">
          <mxGeometry x="70" y="101.04999999999995" width="391.66" height="40" as="geometry" />
        </mxCell>
        <mxCell id="Hi9N75Sx4M3K3PrrkHUg-165" value="" style="shape=image;html=1;verticalLabelPosition=bottom;verticalAlign=top;imageAspect=1;aspect=fixed;image=https://images.vexels.com/media/users/3/204845/isolated/lists/31084e04c65187ba8d1ecb9880f5d29f-design-de-icone-de-traco-de-lupa.png;" parent="Hi9N75Sx4M3K3PrrkHUg-161" vertex="1">
          <mxGeometry x="470.0027535647705" y="100" width="35.88519945349693" height="42.095974814605675" as="geometry" />
        </mxCell>
        <mxCell id="Hi9N75Sx4M3K3PrrkHUg-166" value="NÃ£o encontrado&amp;nbsp;" style="text;html=1;align=center;verticalAlign=middle;whiteSpace=wrap;rounded=0;" parent="Hi9N75Sx4M3K3PrrkHUg-161" vertex="1">
          <mxGeometry x="175.38999999999987" y="180" width="220" height="30" as="geometry" />
        </mxCell>
        <mxCell id="Hi9N75Sx4M3K3PrrkHUg-167" value="Fazer Cadastro" style="rounded=1;whiteSpace=wrap;html=1;fillColor=#FFC336;strokeColor=#FF9999;" parent="Hi9N75Sx4M3K3PrrkHUg-161" vertex="1">
          <mxGeometry x="225.38999999999987" y="220" width="120" height="60" as="geometry" />
        </mxCell>
        <mxCell id="Hi9N75Sx4M3K3PrrkHUg-168" value="" style="rounded=1;whiteSpace=wrap;html=1;" parent="1" vertex="1">
          <mxGeometry x="5148" y="2570" width="490" height="1020" as="geometry" />
        </mxCell>
        <mxCell id="Hi9N75Sx4M3K3PrrkHUg-169" value="" style="shape=image;verticalLabelPosition=bottom;labelBackgroundColor=default;verticalAlign=top;aspect=fixed;imageAspect=0;image=https://png.pngtree.com/png-clipart/20231005/original/pngtree-iphone-mockup-with-blank-screen-on-transparent-background-png-image_13279256.png;clipPath=inset(9.67% 28% 8% 27.67%);" parent="1" vertex="1">
          <mxGeometry x="5098" y="2550" width="570.77" height="1060" as="geometry" />
        </mxCell>
        <mxCell id="Hi9N75Sx4M3K3PrrkHUg-170" value="&lt;font style=&quot;font-size: 36px;&quot;&gt;PÃ¡gina de cadastro&lt;/font&gt;" style="text;html=1;align=center;verticalAlign=middle;whiteSpace=wrap;rounded=0;" parent="1" vertex="1">
          <mxGeometry x="5208.389999999999" y="2662.1" width="350" height="30" as="geometry" />
        </mxCell>
        <mxCell id="Hi9N75Sx4M3K3PrrkHUg-171" value="Nome da transportadora" style="text;html=1;align=center;verticalAlign=middle;whiteSpace=wrap;rounded=0;" parent="1" vertex="1">
          <mxGeometry x="5168" y="2740" width="120" height="30" as="geometry" />
        </mxCell>
        <mxCell id="Hi9N75Sx4M3K3PrrkHUg-172" value="" style="rounded=1;whiteSpace=wrap;html=1;fillColor=#FFC336;strokeColor=#FFE599;" parent="1" vertex="1">
          <mxGeometry x="5168" y="2770" width="420" height="50" as="geometry" />
        </mxCell>
        <mxCell id="Hi9N75Sx4M3K3PrrkHUg-173" value="E-mail" style="text;html=1;align=center;verticalAlign=middle;whiteSpace=wrap;rounded=0;fillColor=#FFFFFF;strokeColor=#FFFFFF;" parent="1" vertex="1">
          <mxGeometry x="5168" y="2860" width="120" height="30" as="geometry" />
        </mxCell>
        <mxCell id="Hi9N75Sx4M3K3PrrkHUg-174" value="Telefone" style="text;html=1;align=center;verticalAlign=middle;whiteSpace=wrap;rounded=0;fillColor=#FFFFFF;strokeColor=#FFFFFF;" parent="1" vertex="1">
          <mxGeometry x="5158" y="2990" width="120" height="30" as="geometry" />
        </mxCell>
        <mxCell id="Hi9N75Sx4M3K3PrrkHUg-175" value="EndereÃ§o" style="text;html=1;align=center;verticalAlign=middle;whiteSpace=wrap;rounded=0;fillColor=#FFFFFF;strokeColor=#FFFFFF;" parent="1" vertex="1">
          <mxGeometry x="5158" y="3106" width="120" height="30" as="geometry" />
        </mxCell>
        <mxCell id="Hi9N75Sx4M3K3PrrkHUg-176" value="Ir" style="rounded=1;whiteSpace=wrap;html=1;fillColor=#FFC336;strokeColor=#FFE8FF;" parent="1" vertex="1">
          <mxGeometry x="5498" y="3500" width="90" height="30" as="geometry" />
        </mxCell>
        <mxCell id="Hi9N75Sx4M3K3PrrkHUg-177" value="" style="rounded=1;whiteSpace=wrap;html=1;fillColor=#FFC336;strokeColor=#FFE599;" parent="1" vertex="1">
          <mxGeometry x="5168" y="2900" width="420" height="50" as="geometry" />
        </mxCell>
        <mxCell id="Hi9N75Sx4M3K3PrrkHUg-178" value="" style="rounded=1;whiteSpace=wrap;html=1;fillColor=#FFC336;strokeColor=#FFE599;" parent="1" vertex="1">
          <mxGeometry x="5173.39" y="3030" width="420" height="50" as="geometry" />
        </mxCell>
        <mxCell id="Hi9N75Sx4M3K3PrrkHUg-179" value="" style="rounded=1;whiteSpace=wrap;html=1;fillColor=#FFC336;strokeColor=#FFE599;" parent="1" vertex="1">
          <mxGeometry x="5173.39" y="3150" width="420" height="50" as="geometry" />
        </mxCell>
        <mxCell id="Hi9N75Sx4M3K3PrrkHUg-180" value="" style="rounded=1;whiteSpace=wrap;html=1;" parent="1" vertex="1">
          <mxGeometry x="4328" y="2585" width="490" height="1020" as="geometry" />
        </mxCell>
        <mxCell id="Hi9N75Sx4M3K3PrrkHUg-181" value="" style="shape=image;verticalLabelPosition=bottom;labelBackgroundColor=default;verticalAlign=top;aspect=fixed;imageAspect=0;image=https://png.pngtree.com/png-clipart/20231005/original/pngtree-iphone-mockup-with-blank-screen-on-transparent-background-png-image_13279256.png;clipPath=inset(9.67% 28% 8% 27.67%);" parent="1" vertex="1">
          <mxGeometry x="4288" y="2565" width="570.77" height="1060" as="geometry" />
        </mxCell>
        <mxCell id="Hi9N75Sx4M3K3PrrkHUg-182" value="&lt;font style=&quot;font-size: 36px;&quot;&gt;Dados do usuÃ¡rio&lt;/font&gt;" style="text;html=1;align=center;verticalAlign=middle;whiteSpace=wrap;rounded=0;" parent="1" vertex="1">
          <mxGeometry x="4398.39" y="2690" width="350" height="30" as="geometry" />
        </mxCell>
        <mxCell id="Hi9N75Sx4M3K3PrrkHUg-183" value="Nome do funcionÃ¡rio:" style="text;html=1;align=center;verticalAlign=middle;whiteSpace=wrap;rounded=0;" parent="1" vertex="1">
          <mxGeometry x="4358" y="2813.95" width="120" height="30" as="geometry" />
        </mxCell>
        <mxCell id="Hi9N75Sx4M3K3PrrkHUg-184" value="" style="rounded=1;whiteSpace=wrap;html=1;fillColor=#FFC336;strokeColor=#FFE599;" parent="1" vertex="1">
          <mxGeometry x="4358" y="2843.95" width="420" height="50" as="geometry" />
        </mxCell>
        <mxCell id="Hi9N75Sx4M3K3PrrkHUg-185" value="E-mail" style="text;html=1;align=center;verticalAlign=middle;whiteSpace=wrap;rounded=0;fillColor=#FFFFFF;strokeColor=#FFFFFF;" parent="1" vertex="1">
          <mxGeometry x="4358" y="2933.95" width="120" height="30" as="geometry" />
        </mxCell>
        <mxCell id="Hi9N75Sx4M3K3PrrkHUg-186" value="Telefone" style="text;html=1;align=center;verticalAlign=middle;whiteSpace=wrap;rounded=0;fillColor=#FFFFFF;strokeColor=#FFFFFF;" parent="1" vertex="1">
          <mxGeometry x="4348" y="3063.95" width="120" height="30" as="geometry" />
        </mxCell>
        <mxCell id="Hi9N75Sx4M3K3PrrkHUg-187" value="EndereÃ§o" style="text;html=1;align=center;verticalAlign=middle;whiteSpace=wrap;rounded=0;fillColor=#FFFFFF;strokeColor=#FFFFFF;" parent="1" vertex="1">
          <mxGeometry x="4348" y="3179.95" width="120" height="30" as="geometry" />
        </mxCell>
        <mxCell id="Hi9N75Sx4M3K3PrrkHUg-188" value="" style="rounded=1;whiteSpace=wrap;html=1;fillColor=#FFC336;strokeColor=#FFE599;" parent="1" vertex="1">
          <mxGeometry x="4358" y="2973.95" width="420" height="50" as="geometry" />
        </mxCell>
        <mxCell id="Hi9N75Sx4M3K3PrrkHUg-189" value="" style="rounded=1;whiteSpace=wrap;html=1;fillColor=#FFC336;strokeColor=#FFE599;" parent="1" vertex="1">
          <mxGeometry x="4358" y="3103.95" width="420" height="50" as="geometry" />
        </mxCell>
        <mxCell id="Hi9N75Sx4M3K3PrrkHUg-190" value="" style="rounded=1;whiteSpace=wrap;html=1;fillColor=#FFC336;strokeColor=#FFE599;" parent="1" vertex="1">
          <mxGeometry x="4358" y="3223.95" width="420" height="50" as="geometry" />
        </mxCell>
        <mxCell id="Hi9N75Sx4M3K3PrrkHUg-191" value="&lt;font style=&quot;font-size: 36px;&quot;&gt;VocÃª deseja apagar esse funcionÃ¡rio?&lt;/font&gt;" style="text;html=1;align=center;verticalAlign=middle;whiteSpace=wrap;rounded=0;" parent="1" vertex="1">
          <mxGeometry x="3602.39" y="2670" width="350" height="110" as="geometry" />
        </mxCell>
        <mxCell id="Hi9N75Sx4M3K3PrrkHUg-192" value="Sim" style="rounded=1;whiteSpace=wrap;html=1;fillColor=#d5e8d4;strokeColor=#82b366;" parent="1" vertex="1">
          <mxGeometry x="3602.39" y="2820" width="126.26" height="60" as="geometry" />
        </mxCell>
        <mxCell id="Hi9N75Sx4M3K3PrrkHUg-193" value="NÃ£o" style="rounded=1;whiteSpace=wrap;html=1;fillColor=#f8cecc;strokeColor=#b85450;" parent="1" vertex="1">
          <mxGeometry x="3811.74" y="2820" width="126.26" height="60" as="geometry" />
        </mxCell>
        <mxCell id="Hi9N75Sx4M3K3PrrkHUg-194" value="" style="group" parent="1" vertex="1" connectable="0">
          <mxGeometry x="3436" y="1460" width="570.77" height="1060" as="geometry" />
        </mxCell>
        <mxCell id="Hi9N75Sx4M3K3PrrkHUg-195" value="" style="rounded=1;whiteSpace=wrap;html=1;" parent="Hi9N75Sx4M3K3PrrkHUg-194" vertex="1">
          <mxGeometry x="40" y="20" width="490" height="1020" as="geometry" />
        </mxCell>
        <mxCell id="Hi9N75Sx4M3K3PrrkHUg-196" value="" style="shape=image;verticalLabelPosition=bottom;labelBackgroundColor=default;verticalAlign=top;aspect=fixed;imageAspect=0;image=https://png.pngtree.com/png-clipart/20231005/original/pngtree-iphone-mockup-with-blank-screen-on-transparent-background-png-image_13279256.png;clipPath=inset(9.67% 28% 8% 27.67%);" parent="Hi9N75Sx4M3K3PrrkHUg-194" vertex="1">
          <mxGeometry width="570.77" height="1060" as="geometry" />
        </mxCell>
        <mxCell id="Hi9N75Sx4M3K3PrrkHUg-197" value="Procurar FuncionÃ¡rio" style="rounded=1;whiteSpace=wrap;html=1;" parent="Hi9N75Sx4M3K3PrrkHUg-194" vertex="1">
          <mxGeometry x="70" y="101.04999999999995" width="391.66" height="40" as="geometry" />
        </mxCell>
        <mxCell id="Hi9N75Sx4M3K3PrrkHUg-198" value="" style="shape=image;html=1;verticalLabelPosition=bottom;verticalAlign=top;imageAspect=1;aspect=fixed;image=https://images.vexels.com/media/users/3/204845/isolated/lists/31084e04c65187ba8d1ecb9880f5d29f-design-de-icone-de-traco-de-lupa.png;" parent="Hi9N75Sx4M3K3PrrkHUg-194" vertex="1">
          <mxGeometry x="470.0027535647705" y="100" width="35.88519945349693" height="42.095974814605675" as="geometry" />
        </mxCell>
        <mxCell id="Hi9N75Sx4M3K3PrrkHUg-199" value="" style="group" parent="Hi9N75Sx4M3K3PrrkHUg-194" vertex="1" connectable="0">
          <mxGeometry x="74" y="180.00380281690155" width="383.6372098218035" height="50" as="geometry" />
        </mxCell>
        <mxCell id="Hi9N75Sx4M3K3PrrkHUg-200" value="Nome do funcionÃ¡rio&amp;nbsp;" style="text;html=1;align=center;verticalAlign=middle;whiteSpace=wrap;rounded=0;" parent="Hi9N75Sx4M3K3PrrkHUg-199" vertex="1">
          <mxGeometry x="57.54865806754998" y="7.253521126760575" width="118.23785290808014" height="35.49295774647888" as="geometry" />
        </mxCell>
        <mxCell id="Hi9N75Sx4M3K3PrrkHUg-201" value="" style="ellipse;whiteSpace=wrap;html=1;aspect=fixed;" parent="Hi9N75Sx4M3K3PrrkHUg-199" vertex="1">
          <mxGeometry width="50" height="50" as="geometry" />
        </mxCell>
        <mxCell id="Hi9N75Sx4M3K3PrrkHUg-202" value="" style="shape=actor;whiteSpace=wrap;html=1;" parent="Hi9N75Sx4M3K3PrrkHUg-199" vertex="1">
          <mxGeometry x="10" y="5" width="30" height="40" as="geometry" />
        </mxCell>
        <mxCell id="Hi9N75Sx4M3K3PrrkHUg-203" value="" style="group" parent="Hi9N75Sx4M3K3PrrkHUg-199" vertex="1" connectable="0">
          <mxGeometry x="179.28259149157725" y="7.253521126760575" width="204.3546183302263" height="35.492957746478865" as="geometry" />
        </mxCell>
        <mxCell id="Hi9N75Sx4M3K3PrrkHUg-204" value="Atualizar?" style="rounded=1;whiteSpace=wrap;html=1;fillColor=#FFC336;strokeColor=#FF9999;" parent="Hi9N75Sx4M3K3PrrkHUg-203" vertex="1">
          <mxGeometry x="148.1916381988882" y="-1.4210854715202004e-14" width="56.162980131338074" height="35.49295774647888" as="geometry" />
        </mxCell>
        <mxCell id="Hi9N75Sx4M3K3PrrkHUg-205" value="Apagar?" style="rounded=1;whiteSpace=wrap;html=1;fillColor=#FFC336;strokeColor=#FF9999;" parent="Hi9N75Sx4M3K3PrrkHUg-203" vertex="1">
          <mxGeometry x="72.27284593809304" y="-1.4210854715202004e-14" width="56.162980131338074" height="35.49295774647888" as="geometry" />
        </mxCell>
        <mxCell id="Hi9N75Sx4M3K3PrrkHUg-206" value="Entrar" style="rounded=1;whiteSpace=wrap;html=1;fillColor=#FFC336;strokeColor=#FF9999;" parent="Hi9N75Sx4M3K3PrrkHUg-203" vertex="1">
          <mxGeometry y="-1.4210854715202004e-14" width="56.162980131338074" height="35.49295774647888" as="geometry" />
        </mxCell>
        <mxCell id="Hi9N75Sx4M3K3PrrkHUg-216" value="" style="group" parent="Hi9N75Sx4M3K3PrrkHUg-194" vertex="1" connectable="0">
          <mxGeometry x="74.01000000000022" y="269.0038028169015" width="383.6372098218035" height="50" as="geometry" />
        </mxCell>
        <mxCell id="Hi9N75Sx4M3K3PrrkHUg-217" value="Nome do funcionÃ¡rio&amp;nbsp;" style="text;html=1;align=center;verticalAlign=middle;whiteSpace=wrap;rounded=0;" parent="Hi9N75Sx4M3K3PrrkHUg-216" vertex="1">
          <mxGeometry x="57.54865806754998" y="7.253521126760575" width="118.23785290808014" height="35.49295774647888" as="geometry" />
        </mxCell>
        <mxCell id="Hi9N75Sx4M3K3PrrkHUg-218" value="" style="ellipse;whiteSpace=wrap;html=1;aspect=fixed;" parent="Hi9N75Sx4M3K3PrrkHUg-216" vertex="1">
          <mxGeometry width="50" height="50" as="geometry" />
        </mxCell>
        <mxCell id="Hi9N75Sx4M3K3PrrkHUg-219" value="" style="shape=actor;whiteSpace=wrap;html=1;" parent="Hi9N75Sx4M3K3PrrkHUg-216" vertex="1">
          <mxGeometry x="10" y="5" width="30" height="40" as="geometry" />
        </mxCell>
        <mxCell id="Hi9N75Sx4M3K3PrrkHUg-220" value="" style="group" parent="Hi9N75Sx4M3K3PrrkHUg-216" vertex="1" connectable="0">
          <mxGeometry x="179.28259149157725" y="7.253521126760575" width="204.3546183302263" height="35.492957746478865" as="geometry" />
        </mxCell>
        <mxCell id="Hi9N75Sx4M3K3PrrkHUg-221" value="Atualizar?" style="rounded=1;whiteSpace=wrap;html=1;fillColor=#FFC336;strokeColor=#FF9999;" parent="Hi9N75Sx4M3K3PrrkHUg-220" vertex="1">
          <mxGeometry x="148.1916381988882" y="-1.4210854715202004e-14" width="56.162980131338074" height="35.49295774647888" as="geometry" />
        </mxCell>
        <mxCell id="Hi9N75Sx4M3K3PrrkHUg-222" value="Apagar?" style="rounded=1;whiteSpace=wrap;html=1;fillColor=#FFC336;strokeColor=#FF9999;" parent="Hi9N75Sx4M3K3PrrkHUg-220" vertex="1">
          <mxGeometry x="72.27284593809304" y="-1.4210854715202004e-14" width="56.162980131338074" height="35.49295774647888" as="geometry" />
        </mxCell>
        <mxCell id="Hi9N75Sx4M3K3PrrkHUg-223" value="Entrar" style="rounded=1;whiteSpace=wrap;html=1;fillColor=#FFC336;strokeColor=#FF9999;" parent="Hi9N75Sx4M3K3PrrkHUg-220" vertex="1">
          <mxGeometry y="-1.4210854715202004e-14" width="56.162980131338074" height="35.49295774647888" as="geometry" />
        </mxCell>
        <mxCell id="Hi9N75Sx4M3K3PrrkHUg-224" value="Cargo" style="text;html=1;align=center;verticalAlign=middle;whiteSpace=wrap;rounded=0;fillColor=#FFFFFF;strokeColor=#FFFFFF;" parent="1" vertex="1">
          <mxGeometry x="4348" y="3310" width="120" height="30" as="geometry" />
        </mxCell>
        <mxCell id="Hi9N75Sx4M3K3PrrkHUg-225" value="" style="rounded=1;whiteSpace=wrap;html=1;fillColor=#FFC336;strokeColor=#FFE599;" parent="1" vertex="1">
          <mxGeometry x="4358" y="3354" width="420" height="50" as="geometry" />
        </mxCell>
        <mxCell id="Hi9N75Sx4M3K3PrrkHUg-226" value="EndereÃ§o" style="text;html=1;align=center;verticalAlign=middle;whiteSpace=wrap;rounded=0;fillColor=#FFFFFF;strokeColor=#FFFFFF;" parent="1" vertex="1">
          <mxGeometry x="4353" y="3426" width="120" height="30" as="geometry" />
        </mxCell>
        <mxCell id="Hi9N75Sx4M3K3PrrkHUg-227" value="" style="rounded=1;whiteSpace=wrap;html=1;fillColor=#FFC336;strokeColor=#FFE599;" parent="1" vertex="1">
          <mxGeometry x="4363" y="3470" width="420" height="50" as="geometry" />
        </mxCell>
        <mxCell id="Hi9N75Sx4M3K3PrrkHUg-228" value="" style="rounded=1;whiteSpace=wrap;html=1;" parent="1" vertex="1">
          <mxGeometry x="10226.74" y="630" width="870" height="1750" as="geometry" />
        </mxCell>
        <mxCell id="Hi9N75Sx4M3K3PrrkHUg-229" value="" style="shape=image;verticalLabelPosition=bottom;labelBackgroundColor=default;verticalAlign=top;aspect=fixed;imageAspect=0;image=https://png.pngtree.com/png-clipart/20231005/original/pngtree-iphone-mockup-with-blank-screen-on-transparent-background-png-image_13279256.png;clipPath=inset(9.67% 28% 8% 27.67%);" parent="1" vertex="1">
          <mxGeometry x="10150" y="590" width="985.39" height="1830" as="geometry" />
        </mxCell>
        <mxCell id="Hi9N75Sx4M3K3PrrkHUg-231" value="" style="rounded=1;whiteSpace=wrap;html=1;" parent="1" vertex="1">
          <mxGeometry x="10301.74" y="780" width="655" height="60" as="geometry" />
        </mxCell>
        <mxCell id="Hi9N75Sx4M3K3PrrkHUg-232" value="" style="shape=image;html=1;verticalLabelPosition=bottom;verticalAlign=top;imageAspect=1;aspect=fixed;image=https://images.vexels.com/media/users/3/204845/isolated/lists/31084e04c65187ba8d1ecb9880f5d29f-design-de-icone-de-traco-de-lupa.png;" parent="1" vertex="1">
          <mxGeometry x="10976.74" y="774.44" width="55.89" height="65.56" as="geometry" />
        </mxCell>
        <mxCell id="Hi9N75Sx4M3K3PrrkHUg-237" value="&lt;span style=&quot;font-family: &amp;quot;Lucida Console&amp;quot;;&quot;&gt;&lt;font style=&quot;font-size: 30px;&quot;&gt;Clientes&lt;/font&gt;&lt;/span&gt;" style="rounded=1;whiteSpace=wrap;html=1;fillColor=#D5E8D4;" parent="1" vertex="1">
          <mxGeometry x="10301.74" y="940" width="285" height="190" as="geometry" />
        </mxCell>
        <mxCell id="Hi9N75Sx4M3K3PrrkHUg-238" value="&lt;span style=&quot;font-family: &amp;quot;Lucida Console&amp;quot;;&quot;&gt;&lt;font style=&quot;font-size: 30px;&quot;&gt;Fornecedores&lt;/font&gt;&lt;/span&gt;" style="rounded=1;whiteSpace=wrap;html=1;fillColor=#FF99CC;" parent="1" vertex="1">
          <mxGeometry x="10671.74" y="940" width="285" height="190" as="geometry" />
        </mxCell>
        <mxCell id="Hi9N75Sx4M3K3PrrkHUg-239" value="&lt;div&gt;&lt;font face=&quot;Lucida Console&quot; style=&quot;font-size: 30px;&quot;&gt;Transportadora&lt;/font&gt;&lt;/div&gt;" style="rounded=1;whiteSpace=wrap;html=1;fillColor=#FFBCAB;" parent="1" vertex="1">
          <mxGeometry x="10301.74" y="1190" width="285" height="190" as="geometry" />
        </mxCell>
        <mxCell id="Hi9N75Sx4M3K3PrrkHUg-240" value="&lt;font face=&quot;Lucida Console&quot; style=&quot;font-size: 30px;&quot;&gt;FuncionÃ¡rios&lt;/font&gt;" style="rounded=1;whiteSpace=wrap;html=1;fillColor=#FFE599;" parent="1" vertex="1">
          <mxGeometry x="10671.74" y="1190" width="285" height="190" as="geometry" />
        </mxCell>
        <mxCell id="Hi9N75Sx4M3K3PrrkHUg-241" value="&lt;font face=&quot;Lucida Console&quot; style=&quot;font-size: 30px;&quot;&gt;MatÃ©ria Prima&lt;/font&gt;" style="rounded=1;whiteSpace=wrap;html=1;fillColor=#99CCFF;" parent="1" vertex="1">
          <mxGeometry x="10301.74" y="1450" width="285" height="190" as="geometry" />
        </mxCell>
        <mxCell id="Hi9N75Sx4M3K3PrrkHUg-242" value="&lt;font face=&quot;Lucida Console&quot; style=&quot;font-size: 30px;&quot;&gt;Produto&lt;/font&gt;" style="rounded=1;whiteSpace=wrap;html=1;fillColor=#CCCCFF;" parent="1" vertex="1">
          <mxGeometry x="10671.74" y="1450" width="285" height="190" as="geometry" />
        </mxCell>
        <mxCell id="Hi9N75Sx4M3K3PrrkHUg-243" value="&lt;font style=&quot;font-size: 30px;&quot; face=&quot;Lucida Console&quot;&gt;Pedido&lt;/font&gt;" style="rounded=1;whiteSpace=wrap;html=1;fillColor=#FFFF99;" parent="1" vertex="1">
          <mxGeometry x="10486.74" y="1690" width="285" height="190" as="geometry" />
        </mxCell>
        <mxCell id="Hi9N75Sx4M3K3PrrkHUg-244" value="&lt;font style=&quot;font-size: 72px;&quot;&gt;+&lt;/font&gt;" style="rounded=1;whiteSpace=wrap;html=1;fillColor=#f8cecc;strokeColor=#b85450;" parent="1" vertex="1">
          <mxGeometry x="10886.74" y="2160" width="110" height="100" as="geometry" />
        </mxCell>
        <mxCell id="isWxtlE1GgKvSp7BsgQw-1" value="" style="shape=ext;double=1;rounded=0;whiteSpace=wrap;html=1;fillColor=#99CCFF;strokeColor=#7395D1;strokeWidth=6;" parent="1" vertex="1">
          <mxGeometry x="6430" y="-1080" width="2940" height="2360" as="geometry" />
        </mxCell>
        <mxCell id="isWxtlE1GgKvSp7BsgQw-2" value="" style="rounded=1;whiteSpace=wrap;html=1;" parent="1" vertex="1">
          <mxGeometry x="8710" y="-1030" width="490" height="1020" as="geometry" />
        </mxCell>
        <mxCell id="isWxtlE1GgKvSp7BsgQw-13" value="" style="shape=image;verticalLabelPosition=bottom;labelBackgroundColor=default;verticalAlign=top;aspect=fixed;imageAspect=0;image=https://png.pngtree.com/png-clipart/20231005/original/pngtree-iphone-mockup-with-blank-screen-on-transparent-background-png-image_13279256.png;clipPath=inset(9.67% 28% 8% 27.67%);" parent="1" vertex="1">
          <mxGeometry x="8669.61" y="-1050" width="570.77" height="1060" as="geometry" />
        </mxCell>
        <mxCell id="isWxtlE1GgKvSp7BsgQw-15" value="&lt;font style=&quot;font-size: 72px;&quot;&gt;MatÃ©ria prima&lt;/font&gt;" style="text;html=1;align=center;verticalAlign=middle;whiteSpace=wrap;rounded=0;" parent="1" vertex="1">
          <mxGeometry x="7445" y="1130" width="930" height="110" as="geometry" />
        </mxCell>
        <mxCell id="isWxtlE1GgKvSp7BsgQw-21" value="" style="group" parent="1" vertex="1" connectable="0">
          <mxGeometry x="7250" y="-1040" width="570.77" height="1060" as="geometry" />
        </mxCell>
        <mxCell id="isWxtlE1GgKvSp7BsgQw-22" value="" style="rounded=1;whiteSpace=wrap;html=1;" parent="isWxtlE1GgKvSp7BsgQw-21" vertex="1">
          <mxGeometry x="40" y="20" width="490" height="1020" as="geometry" />
        </mxCell>
        <mxCell id="isWxtlE1GgKvSp7BsgQw-23" value="" style="shape=image;verticalLabelPosition=bottom;labelBackgroundColor=default;verticalAlign=top;aspect=fixed;imageAspect=0;image=https://png.pngtree.com/png-clipart/20231005/original/pngtree-iphone-mockup-with-blank-screen-on-transparent-background-png-image_13279256.png;clipPath=inset(9.67% 28% 8% 27.67%);" parent="isWxtlE1GgKvSp7BsgQw-21" vertex="1">
          <mxGeometry width="570.77" height="1060" as="geometry" />
        </mxCell>
        <mxCell id="-UZzDbvht3EKiiL4hkv1-3" value="&lt;span style=&quot;font-size: 36px;&quot;&gt;Envio&lt;/span&gt;" style="text;html=1;align=center;verticalAlign=middle;whiteSpace=wrap;rounded=0;" vertex="1" parent="isWxtlE1GgKvSp7BsgQw-21">
          <mxGeometry x="109.99999999999909" y="139.9999999999999" width="350" height="30" as="geometry" />
        </mxCell>
        <mxCell id="-UZzDbvht3EKiiL4hkv1-4" value="" style="rounded=0;whiteSpace=wrap;html=1;" vertex="1" parent="isWxtlE1GgKvSp7BsgQw-21">
          <mxGeometry x="138" y="230" width="330" height="40" as="geometry" />
        </mxCell>
        <mxCell id="-UZzDbvht3EKiiL4hkv1-5" value="&lt;span style=&quot;font-size: 18px;&quot;&gt;O quÃª:&lt;/span&gt;" style="text;html=1;align=center;verticalAlign=middle;whiteSpace=wrap;rounded=0;" vertex="1" parent="isWxtlE1GgKvSp7BsgQw-21">
          <mxGeometry x="70" y="240" width="60" height="30" as="geometry" />
        </mxCell>
        <mxCell id="-UZzDbvht3EKiiL4hkv1-6" value="" style="rounded=0;whiteSpace=wrap;html=1;" vertex="1" parent="isWxtlE1GgKvSp7BsgQw-21">
          <mxGeometry x="178" y="290" width="290" height="40" as="geometry" />
        </mxCell>
        <mxCell id="-UZzDbvht3EKiiL4hkv1-7" value="&lt;span style=&quot;font-size: 18px;&quot;&gt;Quem:&lt;/span&gt;&lt;span style=&quot;color: rgba(0, 0, 0, 0); font-family: monospace; font-size: 0px; text-align: start; text-wrap: nowrap;&quot;&gt;%3CmxGraphModel%3E%3Croot%3E%3CmxCell%20id%3D%220%22%2F%3E%3CmxCell%20id%3D%221%22%20parent%3D%220%22%2F%3E%3CmxCell%20id%3D%222%22%20value%3D%22%22%20style%3D%22rounded%3D0%3BwhiteSpace%3Dwrap%3Bhtml%3D1%3B%22%20vertex%3D%221%22%20parent%3D%221%22%3E%3CmxGeometry%20x%3D%226718%22%20y%3D%22-820%22%20width%3D%22330%22%20height%3D%2240%22%20as%3D%22geometry%22%2F%3E%3C%2FmxCell%3E%3CmxCell%20id%3D%223%22%20value%3D%22%26lt%3Bfont%20style%3D%26quot%3Bfont-size%3A%2018px%3B%26quot%3B%26gt%3B%26lt%3Bfont%20style%3D%26quot%3B%26quot%3B%26gt%3BNome%26lt%3B%2Ffont%26gt%3B%3A%26lt%3B%2Ffont%26gt%3B%22%20style%3D%22text%3Bhtml%3D1%3Balign%3Dcenter%3BverticalAlign%3Dmiddle%3BwhiteSpace%3Dwrap%3Brounded%3D0%3B%22%20vertex%3D%221%22%20parent%3D%221%22%3E%3CmxGeometry%20x%3D%226650%22%20y%3D%22-810%22%20width%3D%2260%22%20height%3D%2230%22%20as%3D%22geometry%22%2F%3E%3C%2FmxCell%3E%3CmxCell%20id%3D%224%22%20value%3D%22%22%20style%3D%22rounded%3D0%3BwhiteSpace%3Dwrap%3Bhtml%3D1%3B%22%20vertex%3D%221%22%20parent%3D%221%22%3E%3CmxGeometry%20x%3D%226758%22%20y%3D%22-760%22%20width%3D%22290%22%20height%3D%2240%22%20as%3D%22geometry%22%2F%3E%3C%2FmxCell%3E%3CmxCell%20id%3D%225%22%20value%3D%22%26lt%3Bspan%20style%3D%26quot%3Bfont-size%3A%2018px%3B%26quot%3B%26gt%3BUnidade%20de%20medida%26lt%3B%2Fspan%26gt%3B%22%20style%3D%22text%3Bhtml%3D1%3Balign%3Dcenter%3BverticalAlign%3Dmiddle%3BwhiteSpace%3Dwrap%3Brounded%3D0%3B%22%20vertex%3D%221%22%20parent%3D%221%22%3E%3CmxGeometry%20x%3D%226640%22%20y%3D%22-750%22%20width%3D%2298%22%20height%3D%2230%22%20as%3D%22geometry%22%2F%3E%3C%2FmxCell%3E%3C%2Froot%3E%3C%2FmxGraphModel%3E&lt;/span&gt;" style="text;html=1;align=center;verticalAlign=middle;whiteSpace=wrap;rounded=0;" vertex="1" parent="isWxtlE1GgKvSp7BsgQw-21">
          <mxGeometry x="60" y="300" width="98" height="30" as="geometry" />
        </mxCell>
        <mxCell id="-UZzDbvht3EKiiL4hkv1-26" value="" style="rounded=0;whiteSpace=wrap;html=1;" vertex="1" parent="isWxtlE1GgKvSp7BsgQw-21">
          <mxGeometry x="158" y="350" width="312" height="40" as="geometry" />
        </mxCell>
        <mxCell id="-UZzDbvht3EKiiL4hkv1-27" value="&lt;span style=&quot;font-size: 18px;&quot;&gt;Quantidade&lt;/span&gt;" style="text;html=1;align=center;verticalAlign=middle;whiteSpace=wrap;rounded=0;" vertex="1" parent="isWxtlE1GgKvSp7BsgQw-21">
          <mxGeometry x="80" y="360" width="60" height="30" as="geometry" />
        </mxCell>
        <mxCell id="-UZzDbvht3EKiiL4hkv1-39" value="Salvar" style="rounded=1;whiteSpace=wrap;html=1;fillColor=#d5e8d4;strokeColor=#82b366;" vertex="1" parent="isWxtlE1GgKvSp7BsgQw-21">
          <mxGeometry x="221.8699999999999" y="440" width="126.26" height="60" as="geometry" />
        </mxCell>
        <mxCell id="isWxtlE1GgKvSp7BsgQw-38" value="" style="rounded=1;whiteSpace=wrap;html=1;" parent="1" vertex="1">
          <mxGeometry x="8020" y="-1030" width="490" height="1020" as="geometry" />
        </mxCell>
        <mxCell id="isWxtlE1GgKvSp7BsgQw-39" value="" style="shape=image;verticalLabelPosition=bottom;labelBackgroundColor=default;verticalAlign=top;aspect=fixed;imageAspect=0;image=https://png.pngtree.com/png-clipart/20231005/original/pngtree-iphone-mockup-with-blank-screen-on-transparent-background-png-image_13279256.png;clipPath=inset(9.67% 28% 8% 27.67%);" parent="1" vertex="1">
          <mxGeometry x="7984.61" y="-1050" width="570.77" height="1060" as="geometry" />
        </mxCell>
        <mxCell id="isWxtlE1GgKvSp7BsgQw-40" value="&lt;font style=&quot;font-size: 36px;&quot;&gt;AdiÃ§aÃµ de estoque&amp;nbsp;&lt;/font&gt;" style="text;html=1;align=center;verticalAlign=middle;whiteSpace=wrap;rounded=0;" parent="1" vertex="1">
          <mxGeometry x="8100.38" y="-910" width="350" height="30" as="geometry" />
        </mxCell>
        <mxCell id="isWxtlE1GgKvSp7BsgQw-41" value="Nome" style="text;html=1;align=center;verticalAlign=middle;whiteSpace=wrap;rounded=0;" parent="1" vertex="1">
          <mxGeometry x="8059.99" y="-840.0000000000002" width="120" height="30" as="geometry" />
        </mxCell>
        <mxCell id="isWxtlE1GgKvSp7BsgQw-42" value="" style="rounded=1;whiteSpace=wrap;html=1;fillColor=#99CCFF;strokeColor=#7EA6E0;" parent="1" vertex="1">
          <mxGeometry x="8059.99" y="-810.0000000000002" width="420" height="50" as="geometry" />
        </mxCell>
        <mxCell id="isWxtlE1GgKvSp7BsgQw-43" value="E-mail" style="text;html=1;align=center;verticalAlign=middle;whiteSpace=wrap;rounded=0;fillColor=#FFFFFF;strokeColor=#FFFFFF;" parent="1" vertex="1">
          <mxGeometry x="8059.99" y="-720.0000000000002" width="120" height="30" as="geometry" />
        </mxCell>
        <mxCell id="isWxtlE1GgKvSp7BsgQw-44" value="Telefone" style="text;html=1;align=center;verticalAlign=middle;whiteSpace=wrap;rounded=0;fillColor=#FFFFFF;strokeColor=#FFFFFF;" parent="1" vertex="1">
          <mxGeometry x="8049.99" y="-590.0000000000002" width="120" height="30" as="geometry" />
        </mxCell>
        <mxCell id="isWxtlE1GgKvSp7BsgQw-45" value="" style="rounded=1;whiteSpace=wrap;html=1;fillColor=#99CCFF;strokeColor=#7EA6E0;" parent="1" vertex="1">
          <mxGeometry x="8059.99" y="-680.0000000000002" width="420" height="50" as="geometry" />
        </mxCell>
        <mxCell id="isWxtlE1GgKvSp7BsgQw-46" value="" style="rounded=1;whiteSpace=wrap;html=1;fillColor=#99CCFF;strokeColor=#7EA6E0;" parent="1" vertex="1">
          <mxGeometry x="8059.99" y="-550.0000000000002" width="420" height="50" as="geometry" />
        </mxCell>
        <mxCell id="isWxtlE1GgKvSp7BsgQw-50" value="" style="group" parent="1" vertex="1" connectable="0">
          <mxGeometry x="6558" y="-1040" width="570.77" height="1060" as="geometry" />
        </mxCell>
        <mxCell id="isWxtlE1GgKvSp7BsgQw-51" value="" style="rounded=1;whiteSpace=wrap;html=1;" parent="isWxtlE1GgKvSp7BsgQw-50" vertex="1">
          <mxGeometry x="40" y="20" width="490" height="1020" as="geometry" />
        </mxCell>
        <mxCell id="isWxtlE1GgKvSp7BsgQw-52" value="" style="shape=image;verticalLabelPosition=bottom;labelBackgroundColor=default;verticalAlign=top;aspect=fixed;imageAspect=0;image=https://png.pngtree.com/png-clipart/20231005/original/pngtree-iphone-mockup-with-blank-screen-on-transparent-background-png-image_13279256.png;clipPath=inset(9.67% 28% 8% 27.67%);" parent="isWxtlE1GgKvSp7BsgQw-50" vertex="1">
          <mxGeometry width="570.77" height="1060" as="geometry" />
        </mxCell>
        <mxCell id="isWxtlE1GgKvSp7BsgQw-71" value="&lt;span style=&quot;font-size: 36px;&quot;&gt;Cadastro de matÃ©ria prima&lt;/span&gt;" style="text;html=1;align=center;verticalAlign=middle;whiteSpace=wrap;rounded=0;" parent="isWxtlE1GgKvSp7BsgQw-50" vertex="1">
          <mxGeometry x="109.99999999999909" y="119.99999999999991" width="350" height="30" as="geometry" />
        </mxCell>
        <mxCell id="isWxtlE1GgKvSp7BsgQw-77" value="" style="rounded=0;whiteSpace=wrap;html=1;" parent="isWxtlE1GgKvSp7BsgQw-50" vertex="1">
          <mxGeometry x="160" y="220" width="330" height="40" as="geometry" />
        </mxCell>
        <mxCell id="isWxtlE1GgKvSp7BsgQw-78" value="&lt;font style=&quot;font-size: 18px;&quot;&gt;&lt;font style=&quot;&quot;&gt;Nome&lt;/font&gt;:&lt;/font&gt;" style="text;html=1;align=center;verticalAlign=middle;whiteSpace=wrap;rounded=0;" parent="isWxtlE1GgKvSp7BsgQw-50" vertex="1">
          <mxGeometry x="92" y="230" width="60" height="30" as="geometry" />
        </mxCell>
        <mxCell id="oa8RUD4xImkjcoNWNXEt-1" value="" style="rounded=0;whiteSpace=wrap;html=1;" parent="isWxtlE1GgKvSp7BsgQw-50" vertex="1">
          <mxGeometry x="200" y="280" width="290" height="40" as="geometry" />
        </mxCell>
        <mxCell id="oa8RUD4xImkjcoNWNXEt-2" value="&lt;span style=&quot;font-size: 18px;&quot;&gt;Unidade de medida&lt;/span&gt;" style="text;html=1;align=center;verticalAlign=middle;whiteSpace=wrap;rounded=0;" parent="isWxtlE1GgKvSp7BsgQw-50" vertex="1">
          <mxGeometry x="82" y="290" width="98" height="30" as="geometry" />
        </mxCell>
        <mxCell id="oa8RUD4xImkjcoNWNXEt-3" value="Salvar" style="rounded=1;whiteSpace=wrap;html=1;fillColor=#d5e8d4;strokeColor=#82b366;" parent="isWxtlE1GgKvSp7BsgQw-50" vertex="1">
          <mxGeometry x="222.26000000000022" y="390" width="126.26" height="60" as="geometry" />
        </mxCell>
        <mxCell id="isWxtlE1GgKvSp7BsgQw-72" value="" style="rounded=1;whiteSpace=wrap;html=1;" parent="1" vertex="1">
          <mxGeometry x="6630" y="238.95" width="460" height="365" as="geometry" />
        </mxCell>
        <mxCell id="isWxtlE1GgKvSp7BsgQw-74" value="&lt;span style=&quot;font-size: 36px;&quot;&gt;VocÃª deseja apagar essa matÃ©ria prima?&lt;/span&gt;" style="text;html=1;align=center;verticalAlign=middle;whiteSpace=wrap;rounded=0;" parent="1" vertex="1">
          <mxGeometry x="6684.999999999999" y="299.9999999999999" width="350" height="30" as="geometry" />
        </mxCell>
        <mxCell id="isWxtlE1GgKvSp7BsgQw-75" value="Sim" style="rounded=1;whiteSpace=wrap;html=1;fillColor=#d5e8d4;strokeColor=#82b366;" parent="1" vertex="1">
          <mxGeometry x="6700" y="430" width="126.26" height="60" as="geometry" />
        </mxCell>
        <mxCell id="isWxtlE1GgKvSp7BsgQw-76" value="NÃ£o" style="rounded=1;whiteSpace=wrap;html=1;fillColor=#f8cecc;strokeColor=#b85450;" parent="1" vertex="1">
          <mxGeometry x="6890" y="430" width="126.26" height="60" as="geometry" />
        </mxCell>
        <mxCell id="-UZzDbvht3EKiiL4hkv1-41" value="" style="shape=ext;double=1;rounded=0;whiteSpace=wrap;html=1;fillColor=#CCCCFF;strokeColor=#ACA3FF;strokeWidth=6;" vertex="1" parent="1">
          <mxGeometry x="6430" y="1420" width="2940" height="2360" as="geometry" />
        </mxCell>
        <mxCell id="-UZzDbvht3EKiiL4hkv1-46" value="&lt;font style=&quot;font-size: 72px;&quot;&gt;Produto&lt;/font&gt;" style="text;html=1;align=center;verticalAlign=middle;whiteSpace=wrap;rounded=0;" vertex="1" parent="1">
          <mxGeometry x="7445" y="3630" width="930" height="110" as="geometry" />
        </mxCell>
        <mxCell id="-UZzDbvht3EKiiL4hkv1-48" value="" style="group" vertex="1" connectable="0" parent="1">
          <mxGeometry x="7659.23" y="1490" width="570.77" height="1060" as="geometry" />
        </mxCell>
        <mxCell id="-UZzDbvht3EKiiL4hkv1-49" value="" style="rounded=1;whiteSpace=wrap;html=1;" vertex="1" parent="-UZzDbvht3EKiiL4hkv1-48">
          <mxGeometry x="40" y="20" width="490" height="1020" as="geometry" />
        </mxCell>
        <mxCell id="-UZzDbvht3EKiiL4hkv1-50" value="" style="shape=image;verticalLabelPosition=bottom;labelBackgroundColor=default;verticalAlign=top;aspect=fixed;imageAspect=0;image=https://png.pngtree.com/png-clipart/20231005/original/pngtree-iphone-mockup-with-blank-screen-on-transparent-background-png-image_13279256.png;clipPath=inset(9.67% 28% 8% 27.67%);" vertex="1" parent="-UZzDbvht3EKiiL4hkv1-48">
          <mxGeometry width="570.77" height="1060" as="geometry" />
        </mxCell>
        <mxCell id="-UZzDbvht3EKiiL4hkv1-51" value="&lt;span style=&quot;font-size: 36px;&quot;&gt;Envio&lt;/span&gt;" style="text;html=1;align=center;verticalAlign=middle;whiteSpace=wrap;rounded=0;" vertex="1" parent="-UZzDbvht3EKiiL4hkv1-48">
          <mxGeometry x="109.99999999999909" y="139.9999999999999" width="350" height="30" as="geometry" />
        </mxCell>
        <mxCell id="-UZzDbvht3EKiiL4hkv1-52" value="" style="rounded=0;whiteSpace=wrap;html=1;" vertex="1" parent="-UZzDbvht3EKiiL4hkv1-48">
          <mxGeometry x="190" y="230" width="318" height="40" as="geometry" />
        </mxCell>
        <mxCell id="-UZzDbvht3EKiiL4hkv1-53" value="&lt;span style=&quot;font-size: 18px;&quot;&gt;Transportadora:&lt;/span&gt;" style="text;html=1;align=center;verticalAlign=middle;whiteSpace=wrap;rounded=0;" vertex="1" parent="-UZzDbvht3EKiiL4hkv1-48">
          <mxGeometry x="90" y="230" width="60" height="30" as="geometry" />
        </mxCell>
        <mxCell id="-UZzDbvht3EKiiL4hkv1-54" value="" style="rounded=0;whiteSpace=wrap;html=1;" vertex="1" parent="-UZzDbvht3EKiiL4hkv1-48">
          <mxGeometry x="160" y="290" width="350" height="40" as="geometry" />
        </mxCell>
        <mxCell id="-UZzDbvht3EKiiL4hkv1-55" value="&lt;span style=&quot;font-size: 18px;&quot;&gt;Produto:&lt;/span&gt;" style="text;html=1;align=center;verticalAlign=middle;whiteSpace=wrap;rounded=0;" vertex="1" parent="-UZzDbvht3EKiiL4hkv1-48">
          <mxGeometry x="60" y="300" width="98" height="30" as="geometry" />
        </mxCell>
        <mxCell id="-UZzDbvht3EKiiL4hkv1-56" value="" style="rounded=0;whiteSpace=wrap;html=1;" vertex="1" parent="-UZzDbvht3EKiiL4hkv1-48">
          <mxGeometry x="158" y="350" width="352" height="40" as="geometry" />
        </mxCell>
        <mxCell id="-UZzDbvht3EKiiL4hkv1-57" value="&lt;span style=&quot;font-size: 18px;&quot;&gt;Quantidade&lt;/span&gt;" style="text;html=1;align=center;verticalAlign=middle;whiteSpace=wrap;rounded=0;" vertex="1" parent="-UZzDbvht3EKiiL4hkv1-48">
          <mxGeometry x="80" y="360" width="60" height="30" as="geometry" />
        </mxCell>
        <mxCell id="-UZzDbvht3EKiiL4hkv1-58" value="&lt;font style=&quot;font-size: 18px;&quot;&gt;Enviar&lt;/font&gt;" style="rounded=1;whiteSpace=wrap;html=1;fillColor=#CCCCFF;strokeColor=#ACA3FF;strokeWidth=3;" vertex="1" parent="-UZzDbvht3EKiiL4hkv1-48">
          <mxGeometry x="360.76999999999987" y="900" width="126.26" height="60" as="geometry" />
        </mxCell>
        <mxCell id="-UZzDbvht3EKiiL4hkv1-77" value="" style="rounded=1;whiteSpace=wrap;html=1;" vertex="1" parent="1">
          <mxGeometry x="7140" y="2670" width="460" height="365" as="geometry" />
        </mxCell>
        <mxCell id="-UZzDbvht3EKiiL4hkv1-78" value="&lt;span style=&quot;font-size: 36px;&quot;&gt;Itens:&lt;/span&gt;" style="text;html=1;align=center;verticalAlign=middle;whiteSpace=wrap;rounded=0;" vertex="1" parent="1">
          <mxGeometry x="7240" y="2730" width="350" height="20" as="geometry" />
        </mxCell>
        <mxCell id="-UZzDbvht3EKiiL4hkv1-79" value="Sim" style="rounded=1;whiteSpace=wrap;html=1;fillColor=#d5e8d4;strokeColor=#82b366;" vertex="1" parent="1">
          <mxGeometry x="9180" y="2743.95" width="126.26" height="60" as="geometry" />
        </mxCell>
        <mxCell id="-UZzDbvht3EKiiL4hkv1-80" value="NÃ£o" style="rounded=1;whiteSpace=wrap;html=1;fillColor=#f8cecc;strokeColor=#b85450;" vertex="1" parent="1">
          <mxGeometry x="9230" y="2870" width="126.26" height="60" as="geometry" />
        </mxCell>
        <mxCell id="-UZzDbvht3EKiiL4hkv1-123" value="" style="group" vertex="1" connectable="0" parent="1">
          <mxGeometry x="6477.74" y="1480" width="570.7699999999995" height="1060" as="geometry" />
        </mxCell>
        <mxCell id="-UZzDbvht3EKiiL4hkv1-43" value="" style="rounded=1;whiteSpace=wrap;html=1;" vertex="1" parent="-UZzDbvht3EKiiL4hkv1-123">
          <mxGeometry x="40.39000000000033" y="20" width="490" height="1020" as="geometry" />
        </mxCell>
        <mxCell id="-UZzDbvht3EKiiL4hkv1-44" value="" style="shape=image;verticalLabelPosition=bottom;labelBackgroundColor=default;verticalAlign=top;aspect=fixed;imageAspect=0;image=https://png.pngtree.com/png-clipart/20231005/original/pngtree-iphone-mockup-with-blank-screen-on-transparent-background-png-image_13279256.png;clipPath=inset(9.67% 28% 8% 27.67%);" vertex="1" parent="-UZzDbvht3EKiiL4hkv1-123">
          <mxGeometry width="570.77" height="1060" as="geometry" />
        </mxCell>
        <mxCell id="-UZzDbvht3EKiiL4hkv1-113" value="&lt;span style=&quot;font-size: 36px;&quot;&gt;Envio&lt;/span&gt;" style="text;html=1;align=center;verticalAlign=middle;whiteSpace=wrap;rounded=0;" vertex="1" parent="-UZzDbvht3EKiiL4hkv1-123">
          <mxGeometry x="110.38999999999942" y="130" width="350" height="30" as="geometry" />
        </mxCell>
        <mxCell id="-UZzDbvht3EKiiL4hkv1-121" value="" style="group;strokeWidth=3;" vertex="1" connectable="0" parent="-UZzDbvht3EKiiL4hkv1-123">
          <mxGeometry x="80.39000000000033" y="200" width="420" height="710" as="geometry" />
        </mxCell>
        <mxCell id="-UZzDbvht3EKiiL4hkv1-114" value="&lt;span style=&quot;font-family: &amp;quot;Lucida Console&amp;quot;;&quot;&gt;&lt;font style=&quot;font-size: 30px;&quot;&gt;Produtos&lt;/font&gt;&lt;/span&gt;" style="rounded=1;whiteSpace=wrap;html=1;fillColor=#CCCCFF;strokeColor=#ACA3FF;strokeWidth=3;" vertex="1" parent="-UZzDbvht3EKiiL4hkv1-121">
          <mxGeometry width="182.7480916030534" height="143.51063829787233" as="geometry" />
        </mxCell>
        <mxCell id="-UZzDbvht3EKiiL4hkv1-115" value="&lt;span style=&quot;font-family: &amp;quot;Lucida Console&amp;quot;;&quot;&gt;&lt;font style=&quot;font-size: 30px;&quot;&gt;Envio&lt;/font&gt;&lt;/span&gt;" style="rounded=1;whiteSpace=wrap;html=1;fillColor=#CCCCFF;strokeColor=#ACA3FF;strokeWidth=3;" vertex="1" parent="-UZzDbvht3EKiiL4hkv1-121">
          <mxGeometry x="237.25190839694656" width="182.7480916030534" height="143.51063829787233" as="geometry" />
        </mxCell>
        <mxCell id="-UZzDbvht3EKiiL4hkv1-116" value="&lt;font face=&quot;Lucida Console&quot;&gt;&lt;span style=&quot;font-size: 30px;&quot;&gt;Estoque&lt;/span&gt;&lt;/font&gt;" style="rounded=1;whiteSpace=wrap;html=1;fillColor=#CCCCFF;strokeWidth=3;strokeColor=#ACA3FF;" vertex="1" parent="-UZzDbvht3EKiiL4hkv1-121">
          <mxGeometry y="188.82978723404256" width="182.7480916030534" height="143.51063829787233" as="geometry" />
        </mxCell>
        <mxCell id="-UZzDbvht3EKiiL4hkv1-117" value="&lt;font face=&quot;Lucida Console&quot; style=&quot;font-size: 30px;&quot;&gt;Comprar&lt;/font&gt;" style="rounded=1;whiteSpace=wrap;html=1;fillColor=#CCCCFF;strokeWidth=3;strokeColor=#ACA3FF;" vertex="1" parent="-UZzDbvht3EKiiL4hkv1-121">
          <mxGeometry x="237.25190839694656" y="188.82978723404256" width="182.7480916030534" height="143.51063829787233" as="geometry" />
        </mxCell>
        <mxCell id="-UZzDbvht3EKiiL4hkv1-124" value="" style="group" vertex="1" connectable="0" parent="1">
          <mxGeometry x="8230" y="1490" width="570.7700000000004" height="1060" as="geometry" />
        </mxCell>
        <mxCell id="-UZzDbvht3EKiiL4hkv1-42" value="" style="rounded=1;whiteSpace=wrap;html=1;" vertex="1" parent="-UZzDbvht3EKiiL4hkv1-124">
          <mxGeometry x="30" y="20" width="490" height="1020" as="geometry" />
        </mxCell>
        <mxCell id="-UZzDbvht3EKiiL4hkv1-45" value="" style="shape=image;verticalLabelPosition=bottom;labelBackgroundColor=default;verticalAlign=top;aspect=fixed;imageAspect=0;image=https://png.pngtree.com/png-clipart/20231005/original/pngtree-iphone-mockup-with-blank-screen-on-transparent-background-png-image_13279256.png;clipPath=inset(9.67% 28% 8% 27.67%);" vertex="1" parent="-UZzDbvht3EKiiL4hkv1-124">
          <mxGeometry width="570.77" height="1060" as="geometry" />
        </mxCell>
        <mxCell id="-UZzDbvht3EKiiL4hkv1-130" value="&lt;font face=&quot;Lucida Console&quot; style=&quot;font-size: 30px;&quot;&gt;itens&lt;/font&gt;" style="rounded=1;whiteSpace=wrap;html=1;fillColor=#CCCCFF;strokeWidth=3;strokeColor=#ACA3FF;" vertex="1" parent="-UZzDbvht3EKiiL4hkv1-124">
          <mxGeometry x="85.39" y="210" width="400" height="143.51" as="geometry" />
        </mxCell>
        <mxCell id="-UZzDbvht3EKiiL4hkv1-131" value="&lt;font face=&quot;Lucida Console&quot; style=&quot;font-size: 30px;&quot;&gt;Compra&lt;/font&gt;" style="rounded=1;whiteSpace=wrap;html=1;fillColor=#CCCCFF;strokeWidth=3;strokeColor=#ACA3FF;" vertex="1" parent="-UZzDbvht3EKiiL4hkv1-124">
          <mxGeometry x="85.38999999999942" y="390" width="400" height="143.51" as="geometry" />
        </mxCell>
        <mxCell id="-UZzDbvht3EKiiL4hkv1-132" value="&lt;font face=&quot;Lucida Console&quot;&gt;&lt;span style=&quot;font-size: 30px;&quot;&gt;Baixa&lt;/span&gt;&lt;/font&gt;" style="rounded=1;whiteSpace=wrap;html=1;fillColor=#CCCCFF;strokeWidth=3;strokeColor=#ACA3FF;" vertex="1" parent="-UZzDbvht3EKiiL4hkv1-124">
          <mxGeometry x="85.38999999999942" y="580" width="400" height="143.51" as="geometry" />
        </mxCell>
        <mxCell id="-UZzDbvht3EKiiL4hkv1-133" value="&lt;font face=&quot;Lucida Console&quot; style=&quot;font-size: 30px;&quot;&gt;+&lt;/font&gt;" style="rounded=1;whiteSpace=wrap;html=1;fillColor=#CCCCFF;strokeWidth=3;strokeColor=#ACA3FF;" vertex="1" parent="-UZzDbvht3EKiiL4hkv1-124">
          <mxGeometry x="370" y="870" width="105.39" height="73.51" as="geometry" />
        </mxCell>
        <mxCell id="-UZzDbvht3EKiiL4hkv1-134" value="&lt;span style=&quot;font-size: 36px;&quot;&gt;Estoque&lt;/span&gt;" style="text;html=1;align=center;verticalAlign=middle;whiteSpace=wrap;rounded=0;" vertex="1" parent="-UZzDbvht3EKiiL4hkv1-124">
          <mxGeometry x="110.39" y="120" width="350" height="30" as="geometry" />
        </mxCell>
        <mxCell id="-UZzDbvht3EKiiL4hkv1-125" value="" style="group" vertex="1" connectable="0" parent="1">
          <mxGeometry x="8799.23" y="1495" width="570.7700000000004" height="1060" as="geometry" />
        </mxCell>
        <mxCell id="-UZzDbvht3EKiiL4hkv1-59" value="" style="rounded=1;whiteSpace=wrap;html=1;" vertex="1" parent="-UZzDbvht3EKiiL4hkv1-125">
          <mxGeometry x="40" y="20" width="490" height="1020" as="geometry" />
        </mxCell>
        <mxCell id="-UZzDbvht3EKiiL4hkv1-60" value="" style="shape=image;verticalLabelPosition=bottom;labelBackgroundColor=default;verticalAlign=top;aspect=fixed;imageAspect=0;image=https://png.pngtree.com/png-clipart/20231005/original/pngtree-iphone-mockup-with-blank-screen-on-transparent-background-png-image_13279256.png;clipPath=inset(9.67% 28% 8% 27.67%);" vertex="1" parent="-UZzDbvht3EKiiL4hkv1-125">
          <mxGeometry width="570.77" height="1060" as="geometry" />
        </mxCell>
        <mxCell id="-UZzDbvht3EKiiL4hkv1-61" value="&lt;font style=&quot;font-size: 36px;&quot;&gt;Cadastro de&amp;nbsp;&lt;/font&gt;" style="text;html=1;align=center;verticalAlign=middle;whiteSpace=wrap;rounded=0;" vertex="1" parent="-UZzDbvht3EKiiL4hkv1-125">
          <mxGeometry x="110.39000000000033" y="125" width="350" height="30" as="geometry" />
        </mxCell>
        <mxCell id="-UZzDbvht3EKiiL4hkv1-62" value="Nome" style="text;html=1;align=center;verticalAlign=middle;whiteSpace=wrap;rounded=0;" vertex="1" parent="-UZzDbvht3EKiiL4hkv1-125">
          <mxGeometry x="70" y="248.94999999999982" width="120" height="30" as="geometry" />
        </mxCell>
        <mxCell id="-UZzDbvht3EKiiL4hkv1-63" value="" style="rounded=1;whiteSpace=wrap;html=1;fillColor=#99CCFF;strokeColor=#7EA6E0;" vertex="1" parent="-UZzDbvht3EKiiL4hkv1-125">
          <mxGeometry x="70" y="278.9499999999998" width="420" height="50" as="geometry" />
        </mxCell>
        <mxCell id="-UZzDbvht3EKiiL4hkv1-64" value="E-mail" style="text;html=1;align=center;verticalAlign=middle;whiteSpace=wrap;rounded=0;fillColor=#FFFFFF;strokeColor=#FFFFFF;" vertex="1" parent="-UZzDbvht3EKiiL4hkv1-125">
          <mxGeometry x="70" y="368.9499999999998" width="120" height="30" as="geometry" />
        </mxCell>
        <mxCell id="-UZzDbvht3EKiiL4hkv1-65" value="Telefone" style="text;html=1;align=center;verticalAlign=middle;whiteSpace=wrap;rounded=0;fillColor=#FFFFFF;strokeColor=#FFFFFF;" vertex="1" parent="-UZzDbvht3EKiiL4hkv1-125">
          <mxGeometry x="60" y="498.9499999999998" width="120" height="30" as="geometry" />
        </mxCell>
        <mxCell id="-UZzDbvht3EKiiL4hkv1-66" value="" style="rounded=1;whiteSpace=wrap;html=1;fillColor=#99CCFF;strokeColor=#7EA6E0;" vertex="1" parent="-UZzDbvht3EKiiL4hkv1-125">
          <mxGeometry x="70" y="408.9499999999998" width="420" height="50" as="geometry" />
        </mxCell>
        <mxCell id="-UZzDbvht3EKiiL4hkv1-67" value="" style="rounded=1;whiteSpace=wrap;html=1;fillColor=#99CCFF;strokeColor=#7EA6E0;" vertex="1" parent="-UZzDbvht3EKiiL4hkv1-125">
          <mxGeometry x="70" y="538.9499999999998" width="420" height="50" as="geometry" />
        </mxCell>
        <mxCell id="-UZzDbvht3EKiiL4hkv1-126" value="" style="group" vertex="1" connectable="0" parent="1">
          <mxGeometry x="7069.61" y="1489.9999999999998" width="570.7699999999995" height="1060.0000000000002" as="geometry" />
        </mxCell>
        <mxCell id="-UZzDbvht3EKiiL4hkv1-69" value="" style="rounded=1;whiteSpace=wrap;html=1;" vertex="1" parent="-UZzDbvht3EKiiL4hkv1-126">
          <mxGeometry x="40.39000000000033" y="15" width="490" height="1020" as="geometry" />
        </mxCell>
        <mxCell id="-UZzDbvht3EKiiL4hkv1-70" value="" style="shape=image;verticalLabelPosition=bottom;labelBackgroundColor=default;verticalAlign=top;aspect=fixed;imageAspect=0;image=https://png.pngtree.com/png-clipart/20231005/original/pngtree-iphone-mockup-with-blank-screen-on-transparent-background-png-image_13279256.png;clipPath=inset(9.67% 28% 8% 27.67%);" vertex="1" parent="-UZzDbvht3EKiiL4hkv1-126">
          <mxGeometry width="570.77" height="1060" as="geometry" />
        </mxCell>
        <mxCell id="-UZzDbvht3EKiiL4hkv1-82" value="&lt;span style=&quot;font-size: 36px;&quot;&gt;Lista de produtos&lt;/span&gt;" style="text;html=1;align=center;verticalAlign=middle;whiteSpace=wrap;rounded=0;" vertex="1" parent="-UZzDbvht3EKiiL4hkv1-126">
          <mxGeometry x="110.38999999999942" y="105" width="350" height="30" as="geometry" />
        </mxCell>
        <mxCell id="-UZzDbvht3EKiiL4hkv1-85" value="" style="rounded=0;whiteSpace=wrap;html=1;" vertex="1" parent="-UZzDbvht3EKiiL4hkv1-126">
          <mxGeometry x="120.78000000000065" y="195" width="330" height="40" as="geometry" />
        </mxCell>
        <mxCell id="-UZzDbvht3EKiiL4hkv1-89" value="" style="rounded=0;whiteSpace=wrap;html=1;" vertex="1" parent="-UZzDbvht3EKiiL4hkv1-126">
          <mxGeometry x="120.78000000000065" y="435" width="330" height="40" as="geometry" />
        </mxCell>
        <mxCell id="-UZzDbvht3EKiiL4hkv1-88" value="" style="rounded=0;whiteSpace=wrap;html=1;" vertex="1" parent="-UZzDbvht3EKiiL4hkv1-126">
          <mxGeometry x="120.78000000000065" y="375" width="330" height="40" as="geometry" />
        </mxCell>
        <mxCell id="-UZzDbvht3EKiiL4hkv1-87" value="" style="rounded=0;whiteSpace=wrap;html=1;" vertex="1" parent="-UZzDbvht3EKiiL4hkv1-126">
          <mxGeometry x="120.78000000000065" y="315" width="330" height="40" as="geometry" />
        </mxCell>
        <mxCell id="-UZzDbvht3EKiiL4hkv1-86" value="" style="rounded=0;whiteSpace=wrap;html=1;" vertex="1" parent="-UZzDbvht3EKiiL4hkv1-126">
          <mxGeometry x="120.78000000000065" y="255" width="330" height="40" as="geometry" />
        </mxCell>
        <mxCell id="-UZzDbvht3EKiiL4hkv1-112" value="&lt;span style=&quot;font-size: 48px;&quot;&gt;+&lt;/span&gt;" style="rounded=1;whiteSpace=wrap;html=1;fillColor=#CCCCFF;strokeColor=#ACA3FF;strokeWidth=2;" vertex="1" parent="-UZzDbvht3EKiiL4hkv1-126">
          <mxGeometry x="236.71000000000004" y="525" width="98.13" height="60" as="geometry" />
        </mxCell>
        <mxCell id="-UZzDbvht3EKiiL4hkv1-137" value="" style="group" vertex="1" connectable="0" parent="1">
          <mxGeometry x="8230" y="2581" width="570.7700000000004" height="1060" as="geometry" />
        </mxCell>
        <mxCell id="-UZzDbvht3EKiiL4hkv1-138" value="" style="rounded=1;whiteSpace=wrap;html=1;" vertex="1" parent="-UZzDbvht3EKiiL4hkv1-137">
          <mxGeometry x="30" y="20" width="490" height="1020" as="geometry" />
        </mxCell>
        <mxCell id="-UZzDbvht3EKiiL4hkv1-139" value="" style="shape=image;verticalLabelPosition=bottom;labelBackgroundColor=default;verticalAlign=top;aspect=fixed;imageAspect=0;image=https://png.pngtree.com/png-clipart/20231005/original/pngtree-iphone-mockup-with-blank-screen-on-transparent-background-png-image_13279256.png;clipPath=inset(9.67% 28% 8% 27.67%);" vertex="1" parent="-UZzDbvht3EKiiL4hkv1-137">
          <mxGeometry width="570.77" height="1060" as="geometry" />
        </mxCell>
        <mxCell id="-UZzDbvht3EKiiL4hkv1-143" value="&lt;font face=&quot;Lucida Console&quot; style=&quot;font-size: 30px;&quot;&gt;+&lt;/font&gt;" style="rounded=1;whiteSpace=wrap;html=1;fillColor=#CCCCFF;strokeWidth=3;strokeColor=#ACA3FF;" vertex="1" parent="-UZzDbvht3EKiiL4hkv1-137">
          <mxGeometry x="370" y="870" width="105.39" height="73.51" as="geometry" />
        </mxCell>
        <mxCell id="-UZzDbvht3EKiiL4hkv1-144" value="&lt;span style=&quot;font-size: 36px;&quot;&gt;Itens&lt;/span&gt;" style="text;html=1;align=center;verticalAlign=middle;whiteSpace=wrap;rounded=0;" vertex="1" parent="-UZzDbvht3EKiiL4hkv1-137">
          <mxGeometry x="110.39" y="120" width="350" height="30" as="geometry" />
        </mxCell>
        <mxCell id="-UZzDbvht3EKiiL4hkv1-145" style="edgeStyle=orthogonalEdgeStyle;rounded=0;orthogonalLoop=1;jettySize=auto;html=1;exitX=0.5;exitY=1;exitDx=0;exitDy=0;" edge="1" parent="1" source="-UZzDbvht3EKiiL4hkv1-78" target="-UZzDbvht3EKiiL4hkv1-78">
          <mxGeometry relative="1" as="geometry" />
        </mxCell>
      </root>
    </mxGraphModel>
  </diagram>
</mxfile>
